%TF.GenerationSoftware,KiCad,Pcbnew,7.0.5-0*%
%TF.CreationDate,2023-05-29T19:57:57-04:00*%
%TF.ProjectId,vic20-ram-expander,76696332-302d-4726-916d-2d657870616e,rev?*%
%TF.SameCoordinates,Original*%
%TF.FileFunction,Copper,L2,Bot*%
%TF.FilePolarity,Positive*%
%FSLAX46Y46*%
G04 Gerber Fmt 4.6, Leading zero omitted, Abs format (unit mm)*
G04 Created by KiCad (PCBNEW 7.0.5-0) date 2023-05-29 19:57:57*
%MOMM*%
%LPD*%
G01*
G04 APERTURE LIST*
G04 Aperture macros list*
%AMRoundRect*
0 Rectangle with rounded corners*
0 $1 Rounding radius*
0 $2 $3 $4 $5 $6 $7 $8 $9 X,Y pos of 4 corners*
0 Add a 4 corners polygon primitive as box body*
4,1,4,$2,$3,$4,$5,$6,$7,$8,$9,$2,$3,0*
0 Add four circle primitives for the rounded corners*
1,1,$1+$1,$2,$3*
1,1,$1+$1,$4,$5*
1,1,$1+$1,$6,$7*
1,1,$1+$1,$8,$9*
0 Add four rect primitives between the rounded corners*
20,1,$1+$1,$2,$3,$4,$5,0*
20,1,$1+$1,$4,$5,$6,$7,0*
20,1,$1+$1,$6,$7,$8,$9,0*
20,1,$1+$1,$8,$9,$2,$3,0*%
G04 Aperture macros list end*
%TA.AperFunction,ComponentPad*%
%ADD10R,1.600000X1.600000*%
%TD*%
%TA.AperFunction,ComponentPad*%
%ADD11O,1.600000X1.600000*%
%TD*%
%TA.AperFunction,ComponentPad*%
%ADD12C,1.600000*%
%TD*%
%TA.AperFunction,ConnectorPad*%
%ADD13RoundRect,0.625000X-0.625000X-4.875000X0.625000X-4.875000X0.625000X4.875000X-0.625000X4.875000X0*%
%TD*%
%TA.AperFunction,ViaPad*%
%ADD14C,0.800000*%
%TD*%
%TA.AperFunction,Conductor*%
%ADD15C,0.250000*%
%TD*%
%TA.AperFunction,Conductor*%
%ADD16C,0.400000*%
%TD*%
G04 APERTURE END LIST*
D10*
%TO.P,U2,1,A14*%
%TO.N,Net-(U2-A14)*%
X161380000Y-111875000D03*
D11*
%TO.P,U2,2,A12*%
%TO.N,/A8*%
X163920000Y-111875000D03*
%TO.P,U2,3,A7*%
%TO.N,/A7*%
X166460000Y-111875000D03*
%TO.P,U2,4,A6*%
%TO.N,/A6*%
X169000000Y-111875000D03*
%TO.P,U2,5,A5*%
%TO.N,/A5*%
X171540000Y-111875000D03*
%TO.P,U2,6,A4*%
%TO.N,/A4*%
X174080000Y-111875000D03*
%TO.P,U2,7,A3*%
%TO.N,/A3*%
X176620000Y-111875000D03*
%TO.P,U2,8,A2*%
%TO.N,/A2*%
X179160000Y-111875000D03*
%TO.P,U2,9,A1*%
%TO.N,/A1*%
X181700000Y-111875000D03*
%TO.P,U2,10,A0*%
%TO.N,/A0*%
X184240000Y-111875000D03*
%TO.P,U2,11,Q0*%
%TO.N,/D0*%
X186780000Y-111875000D03*
%TO.P,U2,12,Q1*%
%TO.N,/D1*%
X189320000Y-111875000D03*
%TO.P,U2,13,Q2*%
%TO.N,/D2*%
X191860000Y-111875000D03*
%TO.P,U2,14,GND*%
%TO.N,GND*%
X194400000Y-111875000D03*
%TO.P,U2,15,Q3*%
%TO.N,/D3*%
X194400000Y-96635000D03*
%TO.P,U2,16,Q4*%
%TO.N,/D4*%
X191860000Y-96635000D03*
%TO.P,U2,17,Q5*%
%TO.N,/D5*%
X189320000Y-96635000D03*
%TO.P,U2,18,Q6*%
%TO.N,/D6*%
X186780000Y-96635000D03*
%TO.P,U2,19,Q7*%
%TO.N,/D7*%
X184240000Y-96635000D03*
%TO.P,U2,20,~{CS}*%
%TO.N,Net-(U2-~{CS})*%
X181700000Y-96635000D03*
%TO.P,U2,21,A10*%
%TO.N,/A9*%
X179160000Y-96635000D03*
%TO.P,U2,22,~{OE}*%
%TO.N,Net-(U2-~{CS})*%
X176620000Y-96635000D03*
%TO.P,U2,23,A11*%
%TO.N,/A10*%
X174080000Y-96635000D03*
%TO.P,U2,24,A9*%
%TO.N,/A11*%
X171540000Y-96635000D03*
%TO.P,U2,25,A8*%
%TO.N,/A12*%
X169000000Y-96635000D03*
%TO.P,U2,26,A13*%
%TO.N,Net-(U2-A13)*%
X166460000Y-96635000D03*
%TO.P,U2,27,~{WE}*%
%TO.N,R{slash}W*%
X163920000Y-96635000D03*
%TO.P,U2,28,VCC*%
%TO.N,+5V*%
X161380000Y-96635000D03*
%TD*%
D12*
%TO.P,C1,1*%
%TO.N,+5V*%
X154250000Y-101750000D03*
%TO.P,C1,2*%
%TO.N,GND*%
X154250000Y-106750000D03*
%TD*%
%TO.P,C2,1*%
%TO.N,+5V*%
X115500000Y-102000000D03*
%TO.P,C2,2*%
%TO.N,GND*%
X115500000Y-107000000D03*
%TD*%
D10*
%TO.P,U3,1,I4*%
%TO.N,+5V*%
X122125000Y-108370000D03*
D11*
%TO.P,U3,2,I5*%
X124665000Y-108370000D03*
%TO.P,U3,3,I6*%
X127205000Y-108370000D03*
%TO.P,U3,4,I7*%
X129745000Y-108370000D03*
%TO.P,U3,5,EI*%
%TO.N,GND*%
X132285000Y-108370000D03*
%TO.P,U3,6,S2*%
%TO.N,unconnected-(U3-S2-Pad6)*%
X134825000Y-108370000D03*
%TO.P,U3,7,S1*%
%TO.N,Net-(U2-A14)*%
X137365000Y-108370000D03*
%TO.P,U3,8,GND*%
%TO.N,GND*%
X139905000Y-108370000D03*
%TO.P,U3,9,S0*%
%TO.N,Net-(U2-A13)*%
X139905000Y-100750000D03*
%TO.P,U3,10,IO*%
%TO.N,Net-(U1-{slash}BLK_1)*%
X137365000Y-100750000D03*
%TO.P,U3,11,I1*%
%TO.N,Net-(U1-{slash}BLK_2)*%
X134825000Y-100750000D03*
%TO.P,U3,12,I2*%
%TO.N,Net-(U1-{slash}BLK_3)*%
X132285000Y-100750000D03*
%TO.P,U3,13,I3*%
%TO.N,Net-(U1-{slash}BLK_5)*%
X129745000Y-100750000D03*
%TO.P,U3,14,GS*%
%TO.N,Net-(U2-~{CS})*%
X127205000Y-100750000D03*
%TO.P,U3,15,EO*%
%TO.N,unconnected-(U3-EO-Pad15)*%
X124665000Y-100750000D03*
%TO.P,U3,16,VCC*%
%TO.N,+5V*%
X122125000Y-100750000D03*
%TD*%
D13*
%TO.P,U1,A,GND*%
%TO.N,GND*%
X196560000Y-125000000D03*
%TO.P,U1,B,A0*%
%TO.N,/A0*%
X192600000Y-125000000D03*
%TO.P,U1,C,A1*%
%TO.N,/A1*%
X188640000Y-125000000D03*
%TO.P,U1,D,A2*%
%TO.N,/A2*%
X184680000Y-125000000D03*
%TO.P,U1,E,A3*%
%TO.N,/A3*%
X180720000Y-125000000D03*
%TO.P,U1,F,A4*%
%TO.N,/A4*%
X176760000Y-125000000D03*
%TO.P,U1,H,A5*%
%TO.N,/A5*%
X172800000Y-125000000D03*
%TO.P,U1,J,A6*%
%TO.N,/A6*%
X168840000Y-125000000D03*
%TO.P,U1,K,A7*%
%TO.N,/A7*%
X164880000Y-125000000D03*
%TO.P,U1,L,A8*%
%TO.N,/A8*%
X160920000Y-125000000D03*
%TO.P,U1,M,A9*%
%TO.N,/A9*%
X156960000Y-125000000D03*
%TO.P,U1,N,A10*%
%TO.N,/A10*%
X153000000Y-125000000D03*
%TO.P,U1,P,A11*%
%TO.N,/A11*%
X149040000Y-125000000D03*
%TO.P,U1,R,A12*%
%TO.N,/A12*%
X145080000Y-125000000D03*
%TO.P,U1,S,A13*%
%TO.N,unconnected-(U1-A13-PadS)*%
X141120000Y-125000000D03*
%TO.P,U1,T,/I/O2*%
%TO.N,unconnected-(U1-{slash}I{slash}O2-PadT)*%
X137160000Y-125000000D03*
%TO.P,U1,U,/I/O3*%
%TO.N,unconnected-(U1-{slash}I{slash}O3-PadU)*%
X133200000Y-125000000D03*
%TO.P,U1,V,SO2*%
%TO.N,unconnected-(U1-SO2-PadV)*%
X129240000Y-125000000D03*
%TO.P,U1,W,/NMI*%
%TO.N,unconnected-(U1-{slash}NMI-PadW)*%
X125280000Y-125000000D03*
%TO.P,U1,X,/RESET*%
%TO.N,unconnected-(U1-{slash}RESET-PadX)*%
X121320000Y-125000000D03*
%TO.P,U1,Y,NC*%
%TO.N,unconnected-(U1-NC-PadY)*%
X117360000Y-125000000D03*
%TO.P,U1,Z,GND*%
%TO.N,GND*%
X113400000Y-125000000D03*
%TD*%
D14*
%TO.N,Net-(U2-A14)*%
X153500000Y-114000000D03*
%TO.N,R{slash}W*%
X114500000Y-112500000D03*
%TD*%
D15*
%TO.N,Net-(U2-A14)*%
X142995000Y-114000000D02*
X153500000Y-114000000D01*
X137365000Y-108370000D02*
X142995000Y-114000000D01*
%TO.N,/A12*%
X166500000Y-105500000D02*
X163500000Y-105500000D01*
X145000000Y-115500000D02*
X145000000Y-124920000D01*
X163500000Y-105500000D02*
X161500000Y-107500000D01*
X156000000Y-110500000D02*
X156000000Y-113500000D01*
X156000000Y-113500000D02*
X154000000Y-115500000D01*
X161500000Y-107500000D02*
X159500000Y-107500000D01*
X169000000Y-103000000D02*
X166500000Y-105500000D01*
X145000000Y-124920000D02*
X145080000Y-125000000D01*
X154000000Y-115500000D02*
X145000000Y-115500000D01*
X169000000Y-96635000D02*
X169000000Y-103000000D01*
X159500000Y-107500000D02*
X156500000Y-110500000D01*
X156500000Y-110500000D02*
X156000000Y-110500000D01*
%TO.N,/A7*%
X165000000Y-115750000D02*
X165000000Y-124880000D01*
X165000000Y-124880000D02*
X164880000Y-125000000D01*
X166460000Y-111875000D02*
X166460000Y-114290000D01*
X166460000Y-114290000D02*
X165000000Y-115750000D01*
%TO.N,/A6*%
X169000000Y-111875000D02*
X169000000Y-124840000D01*
X169000000Y-124840000D02*
X168840000Y-125000000D01*
%TO.N,/A5*%
X171540000Y-111875000D02*
X171540000Y-115540000D01*
X171540000Y-115540000D02*
X172750000Y-116750000D01*
X172750000Y-116750000D02*
X172750000Y-124950000D01*
X172750000Y-124950000D02*
X172800000Y-125000000D01*
%TO.N,/A4*%
X176750000Y-115750000D02*
X176750000Y-124990000D01*
X176750000Y-124990000D02*
X176760000Y-125000000D01*
X174080000Y-113080000D02*
X176750000Y-115750000D01*
X174080000Y-111875000D02*
X174080000Y-113080000D01*
%TO.N,/A3*%
X176620000Y-111875000D02*
X180495000Y-115750000D01*
X180495000Y-115750000D02*
X180500000Y-115750000D01*
X180500000Y-115750000D02*
X180500000Y-124780000D01*
X180500000Y-124780000D02*
X180720000Y-125000000D01*
%TO.N,/A2*%
X184680000Y-117395000D02*
X184680000Y-125000000D01*
X179160000Y-111875000D02*
X184680000Y-117395000D01*
%TO.N,/A1*%
X181700000Y-111875000D02*
X188640000Y-118815000D01*
X188640000Y-118815000D02*
X188640000Y-125000000D01*
%TO.N,/A0*%
X192600000Y-116600000D02*
X192600000Y-125000000D01*
X187615000Y-115250000D02*
X191250000Y-115250000D01*
X184240000Y-111875000D02*
X187615000Y-115250000D01*
X191250000Y-115250000D02*
X192600000Y-116600000D01*
D16*
%TO.N,GND*%
X115500000Y-111000000D02*
X117000000Y-112500000D01*
X154250000Y-106750000D02*
X155612767Y-106750000D01*
X194400000Y-111875000D02*
X196500000Y-113975000D01*
X123415000Y-111085000D02*
X123415000Y-107852233D01*
X131000000Y-107085000D02*
X132285000Y-108370000D01*
X117000000Y-112500000D02*
X122000000Y-112500000D01*
X196500000Y-113975000D02*
X196500000Y-124940000D01*
X131000000Y-106500000D02*
X131000000Y-107085000D01*
X165210000Y-96117233D02*
X167827233Y-93500000D01*
X115500000Y-107000000D02*
X115500000Y-111000000D01*
X197000000Y-93500000D02*
X197000000Y-109275000D01*
X165210000Y-97152767D02*
X165210000Y-96117233D01*
X113500000Y-115750000D02*
X113500000Y-124900000D01*
X117000000Y-112500000D02*
X116750000Y-112500000D01*
X124767233Y-106500000D02*
X131000000Y-106500000D01*
X116750000Y-112500000D02*
X113500000Y-115750000D01*
X155612767Y-106750000D02*
X165210000Y-97152767D01*
X139000000Y-106500000D02*
X139000000Y-107465000D01*
X152630000Y-108370000D02*
X154250000Y-106750000D01*
X139905000Y-108370000D02*
X152630000Y-108370000D01*
X113500000Y-124900000D02*
X113400000Y-125000000D01*
X197000000Y-109275000D02*
X194400000Y-111875000D01*
X139000000Y-107465000D02*
X139905000Y-108370000D01*
X122000000Y-112500000D02*
X123415000Y-111085000D01*
X123415000Y-107852233D02*
X124767233Y-106500000D01*
X167827233Y-93500000D02*
X197000000Y-93500000D01*
X131000000Y-106500000D02*
X139000000Y-106500000D01*
X196500000Y-124940000D02*
X196560000Y-125000000D01*
D15*
%TO.N,/A10*%
X153000000Y-117500000D02*
X153000000Y-125000000D01*
X158500000Y-111500000D02*
X158500000Y-114500000D01*
X164500000Y-108000000D02*
X162500000Y-110000000D01*
X158500000Y-114500000D02*
X155500000Y-117500000D01*
X155500000Y-117500000D02*
X153000000Y-117500000D01*
X174080000Y-96635000D02*
X174080000Y-101420000D01*
X160000000Y-110000000D02*
X158500000Y-111500000D01*
X174080000Y-101420000D02*
X167500000Y-108000000D01*
X167500000Y-108000000D02*
X164500000Y-108000000D01*
X162500000Y-110000000D02*
X160000000Y-110000000D01*
%TO.N,/A11*%
X157500000Y-114000000D02*
X155000000Y-116500000D01*
X162000000Y-108500000D02*
X160000000Y-108500000D01*
X157500000Y-111000000D02*
X157500000Y-114000000D01*
X155000000Y-116500000D02*
X149000000Y-116500000D01*
X160000000Y-108500000D02*
X157500000Y-111000000D01*
X149000000Y-116500000D02*
X149000000Y-124960000D01*
X167000000Y-106500000D02*
X164000000Y-106500000D01*
X171540000Y-96635000D02*
X171540000Y-101960000D01*
X149000000Y-124960000D02*
X149040000Y-125000000D01*
X171540000Y-101960000D02*
X167000000Y-106500000D01*
X164000000Y-106500000D02*
X162000000Y-108500000D01*
%TO.N,/A9*%
X164704009Y-109500000D02*
X162795000Y-111409009D01*
X157000000Y-124960000D02*
X156960000Y-125000000D01*
X161000000Y-116000000D02*
X159000000Y-116000000D01*
X159000000Y-116000000D02*
X157000000Y-118000000D01*
X162795000Y-114205000D02*
X161000000Y-116000000D01*
X157000000Y-118000000D02*
X157000000Y-124960000D01*
X179160000Y-98340000D02*
X168000000Y-109500000D01*
X168000000Y-109500000D02*
X164704009Y-109500000D01*
X179160000Y-96635000D02*
X179160000Y-98340000D01*
X162795000Y-111409009D02*
X162795000Y-114205000D01*
%TO.N,/A8*%
X161000000Y-124920000D02*
X160920000Y-125000000D01*
X161000000Y-117500000D02*
X161000000Y-124920000D01*
X163920000Y-111875000D02*
X163920000Y-114580000D01*
X163920000Y-114580000D02*
X161000000Y-117500000D01*
%TO.N,R{slash}W*%
X111500000Y-102500000D02*
X111500000Y-110500000D01*
X163920000Y-96635000D02*
X162745000Y-95460000D01*
X162745000Y-95460000D02*
X162460000Y-95460000D01*
X161500000Y-94500000D02*
X119500000Y-94500000D01*
X162460000Y-95460000D02*
X161500000Y-94500000D01*
X112500000Y-110500000D02*
X114500000Y-112500000D01*
X111500000Y-110500000D02*
X112500000Y-110500000D01*
X119500000Y-94500000D02*
X111500000Y-102500000D01*
D16*
%TO.N,+5V*%
X142500000Y-96500000D02*
X121000000Y-96500000D01*
X121000000Y-96500000D02*
X115500000Y-102000000D01*
X147750000Y-101750000D02*
X142500000Y-96500000D01*
X154250000Y-101750000D02*
X147750000Y-101750000D01*
%TD*%
%TA.AperFunction,Conductor*%
%TO.N,GND*%
G36*
X198002019Y-85000633D02*
G01*
X198040149Y-85003131D01*
X198083793Y-85005992D01*
X198265459Y-85018985D01*
X198273102Y-85020015D01*
X198389451Y-85043158D01*
X198533666Y-85074531D01*
X198540383Y-85076395D01*
X198658618Y-85116531D01*
X198660224Y-85117103D01*
X198791740Y-85166156D01*
X198797483Y-85168635D01*
X198911830Y-85225024D01*
X198914042Y-85226173D01*
X199034913Y-85292173D01*
X199039641Y-85295037D01*
X199146649Y-85366537D01*
X199149358Y-85368454D01*
X199258652Y-85450271D01*
X199262345Y-85453265D01*
X199359502Y-85538469D01*
X199362448Y-85541228D01*
X199458769Y-85637549D01*
X199461526Y-85640492D01*
X199546729Y-85737648D01*
X199549732Y-85741353D01*
X199601564Y-85810592D01*
X199631543Y-85850639D01*
X199633461Y-85853349D01*
X199704961Y-85960357D01*
X199707828Y-85965091D01*
X199773802Y-86085912D01*
X199774992Y-86088204D01*
X199831356Y-86202499D01*
X199833842Y-86208258D01*
X199882878Y-86339727D01*
X199883497Y-86341465D01*
X199923597Y-86459596D01*
X199925472Y-86466352D01*
X199956848Y-86610590D01*
X199979980Y-86726880D01*
X199981015Y-86734560D01*
X199994021Y-86916413D01*
X199999367Y-86997966D01*
X199999500Y-87002023D01*
X199999500Y-118876000D01*
X199979815Y-118943039D01*
X199927011Y-118988794D01*
X199875500Y-119000000D01*
X193149500Y-119000000D01*
X193082461Y-118980315D01*
X193036706Y-118927511D01*
X193025500Y-118876000D01*
X193025500Y-116532608D01*
X193025499Y-116532604D01*
X193018039Y-116509645D01*
X193013495Y-116490721D01*
X193012873Y-116486794D01*
X193009719Y-116466874D01*
X192998753Y-116445354D01*
X192991308Y-116427378D01*
X192990240Y-116424092D01*
X192983849Y-116404419D01*
X192969649Y-116384875D01*
X192959493Y-116368300D01*
X192948528Y-116346780D01*
X192853220Y-116251472D01*
X192853219Y-116251472D01*
X192835779Y-116234031D01*
X192835777Y-116234030D01*
X191544635Y-114942887D01*
X191544631Y-114942881D01*
X191503221Y-114901473D01*
X191503220Y-114901472D01*
X191481696Y-114890505D01*
X191465112Y-114880341D01*
X191445581Y-114866151D01*
X191445580Y-114866150D01*
X191422615Y-114858688D01*
X191404641Y-114851243D01*
X191383127Y-114840281D01*
X191378010Y-114839470D01*
X191359273Y-114836503D01*
X191340358Y-114831962D01*
X191317394Y-114824500D01*
X191317393Y-114824500D01*
X191283488Y-114824500D01*
X187842610Y-114824500D01*
X187775571Y-114804815D01*
X187754929Y-114788181D01*
X185315556Y-112348808D01*
X185282071Y-112287485D01*
X185283971Y-112227192D01*
X185287057Y-112216348D01*
X185326397Y-112078083D01*
X185345215Y-111875000D01*
X185674785Y-111875000D01*
X185693602Y-112078082D01*
X185749417Y-112274247D01*
X185749422Y-112274260D01*
X185840327Y-112456821D01*
X185963237Y-112619581D01*
X186113958Y-112756980D01*
X186113960Y-112756982D01*
X186213141Y-112818392D01*
X186287363Y-112864348D01*
X186477544Y-112938024D01*
X186678024Y-112975500D01*
X186678026Y-112975500D01*
X186881974Y-112975500D01*
X186881976Y-112975500D01*
X187082456Y-112938024D01*
X187272637Y-112864348D01*
X187446041Y-112756981D01*
X187596764Y-112619579D01*
X187719673Y-112456821D01*
X187810582Y-112274250D01*
X187866397Y-112078083D01*
X187885215Y-111875000D01*
X188214785Y-111875000D01*
X188233602Y-112078082D01*
X188289417Y-112274247D01*
X188289422Y-112274260D01*
X188380327Y-112456821D01*
X188503237Y-112619581D01*
X188653958Y-112756980D01*
X188653960Y-112756982D01*
X188753141Y-112818392D01*
X188827363Y-112864348D01*
X189017544Y-112938024D01*
X189218024Y-112975500D01*
X189218026Y-112975500D01*
X189421974Y-112975500D01*
X189421976Y-112975500D01*
X189622456Y-112938024D01*
X189812637Y-112864348D01*
X189986041Y-112756981D01*
X190136764Y-112619579D01*
X190259673Y-112456821D01*
X190350582Y-112274250D01*
X190406397Y-112078083D01*
X190425215Y-111875000D01*
X190754785Y-111875000D01*
X190773602Y-112078082D01*
X190829417Y-112274247D01*
X190829422Y-112274260D01*
X190920327Y-112456821D01*
X191043237Y-112619581D01*
X191193958Y-112756980D01*
X191193960Y-112756982D01*
X191293141Y-112818392D01*
X191367363Y-112864348D01*
X191557544Y-112938024D01*
X191758024Y-112975500D01*
X191758026Y-112975500D01*
X191961974Y-112975500D01*
X191961976Y-112975500D01*
X192162456Y-112938024D01*
X192352637Y-112864348D01*
X192526041Y-112756981D01*
X192676764Y-112619579D01*
X192799673Y-112456821D01*
X192890582Y-112274250D01*
X192907058Y-112216342D01*
X192944334Y-112157255D01*
X193007644Y-112127697D01*
X193076884Y-112137059D01*
X193130070Y-112182368D01*
X193146097Y-112218188D01*
X193173731Y-112321319D01*
X193173734Y-112321326D01*
X193269865Y-112527482D01*
X193400342Y-112713820D01*
X193561179Y-112874657D01*
X193747517Y-113005134D01*
X193953673Y-113101265D01*
X193953682Y-113101269D01*
X194149999Y-113153872D01*
X194150000Y-113153871D01*
X194150000Y-112190685D01*
X194161955Y-112202641D01*
X194274852Y-112260165D01*
X194368519Y-112275000D01*
X194431481Y-112275000D01*
X194525148Y-112260165D01*
X194638045Y-112202641D01*
X194650000Y-112190686D01*
X194650000Y-113153872D01*
X194846317Y-113101269D01*
X194846326Y-113101265D01*
X195052482Y-113005134D01*
X195238820Y-112874657D01*
X195399657Y-112713820D01*
X195530134Y-112527482D01*
X195626265Y-112321326D01*
X195626269Y-112321317D01*
X195678872Y-112125000D01*
X194715686Y-112125000D01*
X194727641Y-112113045D01*
X194785165Y-112000148D01*
X194804986Y-111875000D01*
X194785165Y-111749852D01*
X194727641Y-111636955D01*
X194715686Y-111625000D01*
X195678872Y-111625000D01*
X195678872Y-111624999D01*
X195626269Y-111428682D01*
X195626265Y-111428673D01*
X195530134Y-111222517D01*
X195399657Y-111036179D01*
X195238820Y-110875342D01*
X195052482Y-110744865D01*
X194846328Y-110648734D01*
X194650000Y-110596127D01*
X194650000Y-111559314D01*
X194638045Y-111547359D01*
X194525148Y-111489835D01*
X194431481Y-111475000D01*
X194368519Y-111475000D01*
X194274852Y-111489835D01*
X194161955Y-111547359D01*
X194150000Y-111559314D01*
X194150000Y-110596127D01*
X193953671Y-110648734D01*
X193747517Y-110744865D01*
X193561179Y-110875342D01*
X193400342Y-111036179D01*
X193269865Y-111222517D01*
X193173734Y-111428673D01*
X193173731Y-111428680D01*
X193146097Y-111531811D01*
X193109731Y-111591471D01*
X193046884Y-111622000D01*
X192977509Y-111613705D01*
X192923631Y-111569219D01*
X192907056Y-111533651D01*
X192906532Y-111531811D01*
X192890582Y-111475750D01*
X192869099Y-111432607D01*
X192846272Y-111386764D01*
X192799673Y-111293179D01*
X192676764Y-111130421D01*
X192676762Y-111130418D01*
X192526041Y-110993019D01*
X192526039Y-110993017D01*
X192352642Y-110885655D01*
X192352635Y-110885651D01*
X192191834Y-110823357D01*
X192162456Y-110811976D01*
X191961976Y-110774500D01*
X191758024Y-110774500D01*
X191557544Y-110811976D01*
X191557541Y-110811976D01*
X191557541Y-110811977D01*
X191367364Y-110885651D01*
X191367357Y-110885655D01*
X191193960Y-110993017D01*
X191193958Y-110993019D01*
X191043237Y-111130418D01*
X190920327Y-111293178D01*
X190829422Y-111475739D01*
X190829417Y-111475752D01*
X190773602Y-111671917D01*
X190754785Y-111874999D01*
X190754785Y-111875000D01*
X190425215Y-111875000D01*
X190406397Y-111671917D01*
X190350582Y-111475750D01*
X190329099Y-111432607D01*
X190306272Y-111386764D01*
X190259673Y-111293179D01*
X190136764Y-111130421D01*
X190136762Y-111130418D01*
X189986041Y-110993019D01*
X189986039Y-110993017D01*
X189812642Y-110885655D01*
X189812635Y-110885651D01*
X189651834Y-110823357D01*
X189622456Y-110811976D01*
X189421976Y-110774500D01*
X189218024Y-110774500D01*
X189017544Y-110811976D01*
X189017541Y-110811976D01*
X189017541Y-110811977D01*
X188827364Y-110885651D01*
X188827357Y-110885655D01*
X188653960Y-110993017D01*
X188653958Y-110993019D01*
X188503237Y-111130418D01*
X188380327Y-111293178D01*
X188289422Y-111475739D01*
X188289417Y-111475752D01*
X188233602Y-111671917D01*
X188214785Y-111874999D01*
X188214785Y-111875000D01*
X187885215Y-111875000D01*
X187866397Y-111671917D01*
X187810582Y-111475750D01*
X187789099Y-111432607D01*
X187766272Y-111386764D01*
X187719673Y-111293179D01*
X187596764Y-111130421D01*
X187596762Y-111130418D01*
X187446041Y-110993019D01*
X187446039Y-110993017D01*
X187272642Y-110885655D01*
X187272635Y-110885651D01*
X187111834Y-110823357D01*
X187082456Y-110811976D01*
X186881976Y-110774500D01*
X186678024Y-110774500D01*
X186477544Y-110811976D01*
X186477541Y-110811976D01*
X186477541Y-110811977D01*
X186287364Y-110885651D01*
X186287357Y-110885655D01*
X186113960Y-110993017D01*
X186113958Y-110993019D01*
X185963237Y-111130418D01*
X185840327Y-111293178D01*
X185749422Y-111475739D01*
X185749417Y-111475752D01*
X185693602Y-111671917D01*
X185674785Y-111874999D01*
X185674785Y-111875000D01*
X185345215Y-111875000D01*
X185326397Y-111671917D01*
X185270582Y-111475750D01*
X185249099Y-111432607D01*
X185226272Y-111386764D01*
X185179673Y-111293179D01*
X185056764Y-111130421D01*
X185056762Y-111130418D01*
X184906041Y-110993019D01*
X184906039Y-110993017D01*
X184732642Y-110885655D01*
X184732635Y-110885651D01*
X184571834Y-110823357D01*
X184542456Y-110811976D01*
X184341976Y-110774500D01*
X184138024Y-110774500D01*
X183937544Y-110811976D01*
X183937541Y-110811976D01*
X183937541Y-110811977D01*
X183747364Y-110885651D01*
X183747357Y-110885655D01*
X183573960Y-110993017D01*
X183573958Y-110993019D01*
X183423237Y-111130418D01*
X183300327Y-111293178D01*
X183209422Y-111475739D01*
X183209417Y-111475752D01*
X183153602Y-111671917D01*
X183134785Y-111874999D01*
X183134785Y-111875000D01*
X183153602Y-112078082D01*
X183209417Y-112274247D01*
X183209422Y-112274260D01*
X183300327Y-112456821D01*
X183423237Y-112619581D01*
X183573958Y-112756980D01*
X183573960Y-112756982D01*
X183673141Y-112818392D01*
X183747363Y-112864348D01*
X183937544Y-112938024D01*
X184138024Y-112975500D01*
X184138026Y-112975500D01*
X184341974Y-112975500D01*
X184341976Y-112975500D01*
X184542456Y-112938024D01*
X184581585Y-112922865D01*
X184651209Y-112917002D01*
X184712950Y-112949711D01*
X184714062Y-112950810D01*
X187266472Y-115503220D01*
X187361780Y-115598528D01*
X187383296Y-115609491D01*
X187399878Y-115619653D01*
X187419419Y-115633850D01*
X187442383Y-115641311D01*
X187460362Y-115648757D01*
X187481874Y-115659719D01*
X187505721Y-115663495D01*
X187524643Y-115668039D01*
X187547601Y-115675499D01*
X187547607Y-115675500D01*
X187581512Y-115675500D01*
X191022390Y-115675500D01*
X191089429Y-115695185D01*
X191110071Y-115711819D01*
X192138181Y-116739929D01*
X192171666Y-116801252D01*
X192174500Y-116827610D01*
X192174500Y-118876000D01*
X192154815Y-118943039D01*
X192102011Y-118988794D01*
X192050500Y-119000000D01*
X189189500Y-119000000D01*
X189122461Y-118980315D01*
X189076706Y-118927511D01*
X189065500Y-118876000D01*
X189065500Y-118849642D01*
X189065500Y-118781512D01*
X189065500Y-118747607D01*
X189058039Y-118724645D01*
X189053495Y-118705721D01*
X189049719Y-118681874D01*
X189038753Y-118660354D01*
X189031308Y-118642378D01*
X189023849Y-118619419D01*
X189009653Y-118599880D01*
X188999493Y-118583301D01*
X188988528Y-118561780D01*
X188893220Y-118466472D01*
X188893219Y-118466471D01*
X188890887Y-118464139D01*
X188890876Y-118464129D01*
X182775556Y-112348808D01*
X182742071Y-112287485D01*
X182743971Y-112227192D01*
X182747057Y-112216348D01*
X182786397Y-112078083D01*
X182805215Y-111875000D01*
X182786397Y-111671917D01*
X182730582Y-111475750D01*
X182709099Y-111432607D01*
X182686272Y-111386764D01*
X182639673Y-111293179D01*
X182516764Y-111130421D01*
X182516762Y-111130418D01*
X182366041Y-110993019D01*
X182366039Y-110993017D01*
X182192642Y-110885655D01*
X182192635Y-110885651D01*
X182031834Y-110823357D01*
X182002456Y-110811976D01*
X181801976Y-110774500D01*
X181598024Y-110774500D01*
X181397544Y-110811976D01*
X181397541Y-110811976D01*
X181397541Y-110811977D01*
X181207364Y-110885651D01*
X181207357Y-110885655D01*
X181033960Y-110993017D01*
X181033958Y-110993019D01*
X180883237Y-111130418D01*
X180760327Y-111293178D01*
X180669422Y-111475739D01*
X180669417Y-111475752D01*
X180613602Y-111671917D01*
X180594785Y-111874999D01*
X180594785Y-111875000D01*
X180613602Y-112078082D01*
X180669417Y-112274247D01*
X180669422Y-112274260D01*
X180760327Y-112456821D01*
X180883237Y-112619581D01*
X181033958Y-112756980D01*
X181033960Y-112756982D01*
X181133141Y-112818392D01*
X181207363Y-112864348D01*
X181397544Y-112938024D01*
X181598024Y-112975500D01*
X181598026Y-112975500D01*
X181801974Y-112975500D01*
X181801976Y-112975500D01*
X182002456Y-112938024D01*
X182041585Y-112922865D01*
X182111209Y-112917002D01*
X182172950Y-112949711D01*
X182174062Y-112950810D01*
X185159958Y-115936706D01*
X188011572Y-118788319D01*
X188045057Y-118849642D01*
X188040073Y-118919334D01*
X187998201Y-118975267D01*
X187932737Y-118999684D01*
X187923891Y-119000000D01*
X185229500Y-119000000D01*
X185162461Y-118980315D01*
X185116706Y-118927511D01*
X185105500Y-118876000D01*
X185105500Y-117327608D01*
X185105499Y-117327604D01*
X185098039Y-117304645D01*
X185093495Y-117285721D01*
X185089719Y-117261874D01*
X185078753Y-117240354D01*
X185071308Y-117222378D01*
X185063849Y-117199420D01*
X185063849Y-117199419D01*
X185049651Y-117179878D01*
X185039492Y-117163299D01*
X185028528Y-117141780D01*
X184933220Y-117046472D01*
X180235556Y-112348808D01*
X180202071Y-112287485D01*
X180203971Y-112227192D01*
X180207057Y-112216348D01*
X180246397Y-112078083D01*
X180265215Y-111875000D01*
X180246397Y-111671917D01*
X180190582Y-111475750D01*
X180169099Y-111432607D01*
X180146272Y-111386764D01*
X180099673Y-111293179D01*
X179976764Y-111130421D01*
X179976762Y-111130418D01*
X179826041Y-110993019D01*
X179826039Y-110993017D01*
X179652642Y-110885655D01*
X179652635Y-110885651D01*
X179491834Y-110823357D01*
X179462456Y-110811976D01*
X179261976Y-110774500D01*
X179058024Y-110774500D01*
X178857544Y-110811976D01*
X178857541Y-110811976D01*
X178857541Y-110811977D01*
X178667364Y-110885651D01*
X178667357Y-110885655D01*
X178493960Y-110993017D01*
X178493958Y-110993019D01*
X178343237Y-111130418D01*
X178220327Y-111293178D01*
X178129422Y-111475739D01*
X178129417Y-111475752D01*
X178073602Y-111671917D01*
X178054785Y-111874999D01*
X178054785Y-111875000D01*
X178073602Y-112078082D01*
X178129417Y-112274247D01*
X178129422Y-112274260D01*
X178220327Y-112456821D01*
X178343237Y-112619581D01*
X178493958Y-112756980D01*
X178493960Y-112756982D01*
X178593141Y-112818392D01*
X178667363Y-112864348D01*
X178857544Y-112938024D01*
X179058024Y-112975500D01*
X179058026Y-112975500D01*
X179261974Y-112975500D01*
X179261976Y-112975500D01*
X179462456Y-112938024D01*
X179501585Y-112922865D01*
X179571209Y-112917002D01*
X179632950Y-112949711D01*
X179634061Y-112950810D01*
X184218182Y-117534930D01*
X184251666Y-117596251D01*
X184254500Y-117622609D01*
X184254500Y-118876000D01*
X184234815Y-118943039D01*
X184182011Y-118988794D01*
X184130500Y-119000000D01*
X181049500Y-119000000D01*
X180982461Y-118980315D01*
X180936706Y-118927511D01*
X180925500Y-118876000D01*
X180925500Y-115793245D01*
X180927027Y-115773846D01*
X180927367Y-115771703D01*
X180930804Y-115750000D01*
X180930294Y-115746781D01*
X180922027Y-115694582D01*
X180921661Y-115689944D01*
X180920500Y-115682613D01*
X180920500Y-115682607D01*
X180920498Y-115682601D01*
X180919338Y-115675276D01*
X180918252Y-115670753D01*
X180909719Y-115616874D01*
X180884955Y-115568272D01*
X180880816Y-115558279D01*
X180876883Y-115550560D01*
X180871229Y-115541335D01*
X180848528Y-115496780D01*
X180753220Y-115401472D01*
X180753217Y-115401470D01*
X180753216Y-115401469D01*
X180745322Y-115395733D01*
X180746074Y-115394696D01*
X180729137Y-115382389D01*
X177695556Y-112348808D01*
X177662071Y-112287485D01*
X177663971Y-112227192D01*
X177667057Y-112216348D01*
X177706397Y-112078083D01*
X177725215Y-111875000D01*
X177706397Y-111671917D01*
X177650582Y-111475750D01*
X177629099Y-111432607D01*
X177606272Y-111386764D01*
X177559673Y-111293179D01*
X177436764Y-111130421D01*
X177436762Y-111130418D01*
X177286041Y-110993019D01*
X177286039Y-110993017D01*
X177112642Y-110885655D01*
X177112635Y-110885651D01*
X176951834Y-110823357D01*
X176922456Y-110811976D01*
X176721976Y-110774500D01*
X176518024Y-110774500D01*
X176317544Y-110811976D01*
X176317541Y-110811976D01*
X176317541Y-110811977D01*
X176127364Y-110885651D01*
X176127357Y-110885655D01*
X175953960Y-110993017D01*
X175953958Y-110993019D01*
X175803237Y-111130418D01*
X175680327Y-111293178D01*
X175589422Y-111475739D01*
X175589417Y-111475752D01*
X175533602Y-111671917D01*
X175514785Y-111874999D01*
X175514785Y-111875000D01*
X175533602Y-112078082D01*
X175589417Y-112274247D01*
X175589422Y-112274260D01*
X175680327Y-112456821D01*
X175803237Y-112619581D01*
X175953958Y-112756980D01*
X175953960Y-112756982D01*
X176053141Y-112818392D01*
X176127363Y-112864348D01*
X176317544Y-112938024D01*
X176518024Y-112975500D01*
X176518026Y-112975500D01*
X176721974Y-112975500D01*
X176721976Y-112975500D01*
X176922456Y-112938024D01*
X176961585Y-112922865D01*
X177031209Y-112917002D01*
X177092950Y-112949711D01*
X177094062Y-112950810D01*
X180038181Y-115894929D01*
X180071666Y-115956252D01*
X180074500Y-115982610D01*
X180074500Y-118876000D01*
X180054815Y-118943039D01*
X180002011Y-118988794D01*
X179950500Y-119000000D01*
X177299500Y-119000000D01*
X177232461Y-118980315D01*
X177186706Y-118927511D01*
X177175500Y-118876000D01*
X177175500Y-115682608D01*
X177175499Y-115682604D01*
X177168039Y-115659645D01*
X177163495Y-115640721D01*
X177163461Y-115640505D01*
X177159719Y-115616874D01*
X177148753Y-115595354D01*
X177141308Y-115577378D01*
X177140373Y-115574500D01*
X177133849Y-115554419D01*
X177119653Y-115534880D01*
X177109493Y-115518301D01*
X177098528Y-115496780D01*
X177003220Y-115401472D01*
X177003218Y-115401470D01*
X174617532Y-113015785D01*
X174584048Y-112954462D01*
X174589032Y-112884770D01*
X174630904Y-112828837D01*
X174639926Y-112822684D01*
X174746041Y-112756981D01*
X174896764Y-112619579D01*
X175019673Y-112456821D01*
X175110582Y-112274250D01*
X175166397Y-112078083D01*
X175185215Y-111875000D01*
X175166397Y-111671917D01*
X175110582Y-111475750D01*
X175089099Y-111432607D01*
X175066272Y-111386764D01*
X175019673Y-111293179D01*
X174896764Y-111130421D01*
X174896762Y-111130418D01*
X174746041Y-110993019D01*
X174746039Y-110993017D01*
X174572642Y-110885655D01*
X174572635Y-110885651D01*
X174411834Y-110823357D01*
X174382456Y-110811976D01*
X174181976Y-110774500D01*
X173978024Y-110774500D01*
X173777544Y-110811976D01*
X173777541Y-110811976D01*
X173777541Y-110811977D01*
X173587364Y-110885651D01*
X173587357Y-110885655D01*
X173413960Y-110993017D01*
X173413958Y-110993019D01*
X173263237Y-111130418D01*
X173140327Y-111293178D01*
X173049422Y-111475739D01*
X173049417Y-111475752D01*
X172993602Y-111671917D01*
X172974785Y-111874999D01*
X172974785Y-111875000D01*
X172993602Y-112078082D01*
X173049417Y-112274247D01*
X173049422Y-112274260D01*
X173140327Y-112456821D01*
X173263237Y-112619581D01*
X173413958Y-112756980D01*
X173413960Y-112756982D01*
X173592237Y-112867366D01*
X173591375Y-112868756D01*
X173636998Y-112911041D01*
X173654500Y-112974555D01*
X173654500Y-113147394D01*
X173661962Y-113170358D01*
X173666503Y-113189273D01*
X173669470Y-113208010D01*
X173670281Y-113213127D01*
X173681243Y-113234641D01*
X173688688Y-113252615D01*
X173696150Y-113275580D01*
X173710340Y-113295110D01*
X173720508Y-113311703D01*
X173731470Y-113333218D01*
X173731472Y-113333220D01*
X173755446Y-113357194D01*
X175031381Y-114633129D01*
X176288181Y-115889928D01*
X176321666Y-115951251D01*
X176324500Y-115977609D01*
X176324500Y-118876000D01*
X176304815Y-118943039D01*
X176252011Y-118988794D01*
X176200500Y-119000000D01*
X173299500Y-119000000D01*
X173232461Y-118980315D01*
X173186706Y-118927511D01*
X173175500Y-118876000D01*
X173175500Y-116682608D01*
X173175499Y-116682604D01*
X173168039Y-116659645D01*
X173163495Y-116640721D01*
X173159719Y-116616874D01*
X173148753Y-116595354D01*
X173141308Y-116577378D01*
X173137777Y-116566511D01*
X173133849Y-116554419D01*
X173119649Y-116534875D01*
X173109493Y-116518300D01*
X173098528Y-116496780D01*
X173020659Y-116418911D01*
X173020658Y-116418909D01*
X172001819Y-115400070D01*
X171968334Y-115338747D01*
X171965500Y-115312389D01*
X171965500Y-112974555D01*
X171985185Y-112907516D01*
X172028555Y-112868645D01*
X172027763Y-112867366D01*
X172206039Y-112756982D01*
X172206038Y-112756982D01*
X172206041Y-112756981D01*
X172356764Y-112619579D01*
X172479673Y-112456821D01*
X172570582Y-112274250D01*
X172626397Y-112078083D01*
X172645215Y-111875000D01*
X172626397Y-111671917D01*
X172570582Y-111475750D01*
X172549099Y-111432607D01*
X172526272Y-111386764D01*
X172479673Y-111293179D01*
X172356764Y-111130421D01*
X172356762Y-111130418D01*
X172206041Y-110993019D01*
X172206039Y-110993017D01*
X172032642Y-110885655D01*
X172032635Y-110885651D01*
X171871834Y-110823357D01*
X171842456Y-110811976D01*
X171641976Y-110774500D01*
X171438024Y-110774500D01*
X171237544Y-110811976D01*
X171237541Y-110811976D01*
X171237541Y-110811977D01*
X171047364Y-110885651D01*
X171047357Y-110885655D01*
X170873960Y-110993017D01*
X170873958Y-110993019D01*
X170723237Y-111130418D01*
X170600327Y-111293178D01*
X170509422Y-111475739D01*
X170509417Y-111475752D01*
X170453602Y-111671917D01*
X170434785Y-111874999D01*
X170434785Y-111875000D01*
X170453602Y-112078082D01*
X170509417Y-112274247D01*
X170509422Y-112274260D01*
X170600327Y-112456821D01*
X170723237Y-112619581D01*
X170873958Y-112756980D01*
X170873960Y-112756982D01*
X171052237Y-112867366D01*
X171051375Y-112868756D01*
X171096998Y-112911041D01*
X171114500Y-112974555D01*
X171114500Y-115607394D01*
X171121962Y-115630358D01*
X171126503Y-115649273D01*
X171129470Y-115668010D01*
X171130281Y-115673127D01*
X171141243Y-115694641D01*
X171148688Y-115712615D01*
X171156150Y-115735580D01*
X171170340Y-115755110D01*
X171180508Y-115771703D01*
X171191470Y-115793218D01*
X172288181Y-116889929D01*
X172321666Y-116951252D01*
X172324500Y-116977610D01*
X172324500Y-118876000D01*
X172304815Y-118943039D01*
X172252011Y-118988794D01*
X172200500Y-119000000D01*
X169549500Y-119000000D01*
X169482461Y-118980315D01*
X169436706Y-118927511D01*
X169425500Y-118876000D01*
X169425500Y-112974555D01*
X169445185Y-112907516D01*
X169488555Y-112868645D01*
X169487763Y-112867366D01*
X169666039Y-112756982D01*
X169666038Y-112756982D01*
X169666041Y-112756981D01*
X169816764Y-112619579D01*
X169939673Y-112456821D01*
X170030582Y-112274250D01*
X170086397Y-112078083D01*
X170105215Y-111875000D01*
X170086397Y-111671917D01*
X170030582Y-111475750D01*
X170009099Y-111432607D01*
X169986272Y-111386764D01*
X169939673Y-111293179D01*
X169816764Y-111130421D01*
X169816762Y-111130418D01*
X169666041Y-110993019D01*
X169666039Y-110993017D01*
X169492642Y-110885655D01*
X169492635Y-110885651D01*
X169331834Y-110823357D01*
X169302456Y-110811976D01*
X169101976Y-110774500D01*
X168898024Y-110774500D01*
X168697544Y-110811976D01*
X168697541Y-110811976D01*
X168697541Y-110811977D01*
X168507364Y-110885651D01*
X168507357Y-110885655D01*
X168333960Y-110993017D01*
X168333958Y-110993019D01*
X168183237Y-111130418D01*
X168060327Y-111293178D01*
X167969422Y-111475739D01*
X167969417Y-111475752D01*
X167913602Y-111671917D01*
X167894785Y-111874999D01*
X167894785Y-111875000D01*
X167913602Y-112078082D01*
X167969417Y-112274247D01*
X167969422Y-112274260D01*
X168060327Y-112456821D01*
X168183237Y-112619581D01*
X168333958Y-112756980D01*
X168333960Y-112756982D01*
X168512237Y-112867366D01*
X168511375Y-112868756D01*
X168556998Y-112911041D01*
X168574500Y-112974555D01*
X168574500Y-118876000D01*
X168554815Y-118943039D01*
X168502011Y-118988794D01*
X168450500Y-119000000D01*
X165549500Y-119000000D01*
X165482461Y-118980315D01*
X165436706Y-118927511D01*
X165425500Y-118876000D01*
X165425500Y-115977610D01*
X165445185Y-115910571D01*
X165461819Y-115889929D01*
X166104974Y-115246774D01*
X166784554Y-114567194D01*
X166784554Y-114567193D01*
X166808528Y-114543220D01*
X166819493Y-114521699D01*
X166829650Y-114505125D01*
X166843850Y-114485581D01*
X166851311Y-114462614D01*
X166858760Y-114444633D01*
X166869718Y-114423129D01*
X166869718Y-114423128D01*
X166869718Y-114423127D01*
X166869719Y-114423126D01*
X166873496Y-114399273D01*
X166878035Y-114380366D01*
X166885500Y-114357393D01*
X166885500Y-114222607D01*
X166885500Y-114222606D01*
X166885500Y-112974555D01*
X166905185Y-112907516D01*
X166948555Y-112868645D01*
X166947763Y-112867366D01*
X167126039Y-112756982D01*
X167126038Y-112756982D01*
X167126041Y-112756981D01*
X167276764Y-112619579D01*
X167399673Y-112456821D01*
X167490582Y-112274250D01*
X167546397Y-112078083D01*
X167565215Y-111875000D01*
X167546397Y-111671917D01*
X167490582Y-111475750D01*
X167469099Y-111432607D01*
X167446272Y-111386764D01*
X167399673Y-111293179D01*
X167276764Y-111130421D01*
X167276762Y-111130418D01*
X167126041Y-110993019D01*
X167126039Y-110993017D01*
X166952642Y-110885655D01*
X166952635Y-110885651D01*
X166791834Y-110823357D01*
X166762456Y-110811976D01*
X166561976Y-110774500D01*
X166358024Y-110774500D01*
X166157544Y-110811976D01*
X166157541Y-110811976D01*
X166157541Y-110811977D01*
X165967364Y-110885651D01*
X165967357Y-110885655D01*
X165793960Y-110993017D01*
X165793958Y-110993019D01*
X165643237Y-111130418D01*
X165520327Y-111293178D01*
X165429422Y-111475739D01*
X165429417Y-111475752D01*
X165373602Y-111671917D01*
X165354785Y-111874999D01*
X165354785Y-111875000D01*
X165373602Y-112078082D01*
X165429417Y-112274247D01*
X165429422Y-112274260D01*
X165520327Y-112456821D01*
X165643237Y-112619581D01*
X165793958Y-112756980D01*
X165793960Y-112756982D01*
X165972237Y-112867366D01*
X165971375Y-112868756D01*
X166016998Y-112911041D01*
X166034500Y-112974555D01*
X166034500Y-114062388D01*
X166014815Y-114129427D01*
X165998181Y-114150069D01*
X164688196Y-115460053D01*
X164688192Y-115460059D01*
X164651472Y-115496778D01*
X164640510Y-115518293D01*
X164630346Y-115534878D01*
X164616152Y-115554414D01*
X164616151Y-115554417D01*
X164608688Y-115577385D01*
X164601243Y-115595358D01*
X164590280Y-115616873D01*
X164586503Y-115640722D01*
X164581962Y-115659639D01*
X164574500Y-115682604D01*
X164574500Y-118876000D01*
X164554815Y-118943039D01*
X164502011Y-118988794D01*
X164450500Y-119000000D01*
X161549500Y-119000000D01*
X161482461Y-118980315D01*
X161436706Y-118927511D01*
X161425500Y-118876000D01*
X161425500Y-118464119D01*
X161425500Y-117727606D01*
X161445184Y-117660571D01*
X161461813Y-117639934D01*
X164244554Y-114857194D01*
X164244554Y-114857193D01*
X164268528Y-114833220D01*
X164279493Y-114811699D01*
X164289650Y-114795125D01*
X164303850Y-114775581D01*
X164311311Y-114752614D01*
X164318760Y-114734633D01*
X164329718Y-114713129D01*
X164329718Y-114713128D01*
X164329718Y-114713127D01*
X164329719Y-114713126D01*
X164333496Y-114689273D01*
X164338035Y-114670366D01*
X164345500Y-114647393D01*
X164345500Y-114512607D01*
X164345500Y-112974554D01*
X164365185Y-112907516D01*
X164408555Y-112868645D01*
X164407763Y-112867366D01*
X164586039Y-112756982D01*
X164586038Y-112756982D01*
X164586041Y-112756981D01*
X164736764Y-112619579D01*
X164859673Y-112456821D01*
X164950582Y-112274250D01*
X165006397Y-112078083D01*
X165025215Y-111875000D01*
X165006397Y-111671917D01*
X164950582Y-111475750D01*
X164929099Y-111432607D01*
X164906272Y-111386764D01*
X164859673Y-111293179D01*
X164736764Y-111130421D01*
X164736762Y-111130418D01*
X164586041Y-110993019D01*
X164586039Y-110993017D01*
X164412642Y-110885655D01*
X164412641Y-110885654D01*
X164412637Y-110885652D01*
X164412632Y-110885650D01*
X164412626Y-110885647D01*
X164235083Y-110816866D01*
X164179681Y-110774294D01*
X164156091Y-110708527D01*
X164171802Y-110640446D01*
X164192192Y-110613563D01*
X164843937Y-109961819D01*
X164905261Y-109928334D01*
X164931619Y-109925500D01*
X168067392Y-109925500D01*
X168067393Y-109925500D01*
X168090360Y-109918036D01*
X168109276Y-109913495D01*
X168133126Y-109909719D01*
X168154636Y-109898757D01*
X168172614Y-109891310D01*
X168195581Y-109883849D01*
X168215118Y-109869653D01*
X168231706Y-109859488D01*
X168253220Y-109848528D01*
X168348528Y-109753220D01*
X179484553Y-98617195D01*
X179484553Y-98617194D01*
X179508528Y-98593220D01*
X179519498Y-98571689D01*
X179529647Y-98555126D01*
X179543849Y-98535581D01*
X179551309Y-98512616D01*
X179558759Y-98494634D01*
X179569718Y-98473128D01*
X179569718Y-98473127D01*
X179569719Y-98473126D01*
X179573495Y-98449276D01*
X179578036Y-98430360D01*
X179585500Y-98407393D01*
X179585500Y-98272607D01*
X179585500Y-98272606D01*
X179585500Y-97734555D01*
X179605185Y-97667516D01*
X179648555Y-97628645D01*
X179647763Y-97627366D01*
X179826039Y-97516982D01*
X179826038Y-97516982D01*
X179826041Y-97516981D01*
X179976764Y-97379579D01*
X180099673Y-97216821D01*
X180190582Y-97034250D01*
X180246397Y-96838083D01*
X180265215Y-96635000D01*
X180594785Y-96635000D01*
X180613602Y-96838082D01*
X180669417Y-97034247D01*
X180669422Y-97034260D01*
X180760327Y-97216821D01*
X180883237Y-97379581D01*
X181033958Y-97516980D01*
X181033960Y-97516982D01*
X181133141Y-97578392D01*
X181207363Y-97624348D01*
X181397544Y-97698024D01*
X181598024Y-97735500D01*
X181598026Y-97735500D01*
X181801974Y-97735500D01*
X181801976Y-97735500D01*
X182002456Y-97698024D01*
X182192637Y-97624348D01*
X182366041Y-97516981D01*
X182516764Y-97379579D01*
X182639673Y-97216821D01*
X182730582Y-97034250D01*
X182786397Y-96838083D01*
X182805215Y-96635000D01*
X183134785Y-96635000D01*
X183153602Y-96838082D01*
X183209417Y-97034247D01*
X183209422Y-97034260D01*
X183300327Y-97216821D01*
X183423237Y-97379581D01*
X183573958Y-97516980D01*
X183573960Y-97516982D01*
X183673141Y-97578392D01*
X183747363Y-97624348D01*
X183937544Y-97698024D01*
X184138024Y-97735500D01*
X184138026Y-97735500D01*
X184341974Y-97735500D01*
X184341976Y-97735500D01*
X184542456Y-97698024D01*
X184732637Y-97624348D01*
X184906041Y-97516981D01*
X185056764Y-97379579D01*
X185179673Y-97216821D01*
X185270582Y-97034250D01*
X185326397Y-96838083D01*
X185345215Y-96635000D01*
X185674785Y-96635000D01*
X185693602Y-96838082D01*
X185749417Y-97034247D01*
X185749422Y-97034260D01*
X185840327Y-97216821D01*
X185963237Y-97379581D01*
X186113958Y-97516980D01*
X186113960Y-97516982D01*
X186213141Y-97578392D01*
X186287363Y-97624348D01*
X186477544Y-97698024D01*
X186678024Y-97735500D01*
X186678026Y-97735500D01*
X186881974Y-97735500D01*
X186881976Y-97735500D01*
X187082456Y-97698024D01*
X187272637Y-97624348D01*
X187446041Y-97516981D01*
X187596764Y-97379579D01*
X187719673Y-97216821D01*
X187810582Y-97034250D01*
X187866397Y-96838083D01*
X187885215Y-96635000D01*
X188214785Y-96635000D01*
X188233602Y-96838082D01*
X188289417Y-97034247D01*
X188289422Y-97034260D01*
X188380327Y-97216821D01*
X188503237Y-97379581D01*
X188653958Y-97516980D01*
X188653960Y-97516982D01*
X188753141Y-97578392D01*
X188827363Y-97624348D01*
X189017544Y-97698024D01*
X189218024Y-97735500D01*
X189218026Y-97735500D01*
X189421974Y-97735500D01*
X189421976Y-97735500D01*
X189622456Y-97698024D01*
X189812637Y-97624348D01*
X189986041Y-97516981D01*
X190136764Y-97379579D01*
X190259673Y-97216821D01*
X190350582Y-97034250D01*
X190406397Y-96838083D01*
X190425215Y-96635000D01*
X190754785Y-96635000D01*
X190773602Y-96838082D01*
X190829417Y-97034247D01*
X190829422Y-97034260D01*
X190920327Y-97216821D01*
X191043237Y-97379581D01*
X191193958Y-97516980D01*
X191193960Y-97516982D01*
X191293141Y-97578392D01*
X191367363Y-97624348D01*
X191557544Y-97698024D01*
X191758024Y-97735500D01*
X191758026Y-97735500D01*
X191961974Y-97735500D01*
X191961976Y-97735500D01*
X192162456Y-97698024D01*
X192352637Y-97624348D01*
X192526041Y-97516981D01*
X192676764Y-97379579D01*
X192799673Y-97216821D01*
X192890582Y-97034250D01*
X192946397Y-96838083D01*
X192965215Y-96635000D01*
X193294785Y-96635000D01*
X193313602Y-96838082D01*
X193369417Y-97034247D01*
X193369422Y-97034260D01*
X193460327Y-97216821D01*
X193583237Y-97379581D01*
X193733958Y-97516980D01*
X193733960Y-97516982D01*
X193833141Y-97578392D01*
X193907363Y-97624348D01*
X194097544Y-97698024D01*
X194298024Y-97735500D01*
X194298026Y-97735500D01*
X194501974Y-97735500D01*
X194501976Y-97735500D01*
X194702456Y-97698024D01*
X194892637Y-97624348D01*
X195066041Y-97516981D01*
X195216764Y-97379579D01*
X195339673Y-97216821D01*
X195430582Y-97034250D01*
X195486397Y-96838083D01*
X195505215Y-96635000D01*
X195486397Y-96431917D01*
X195430582Y-96235750D01*
X195430574Y-96235734D01*
X195373335Y-96120782D01*
X195339673Y-96053179D01*
X195216764Y-95890421D01*
X195216762Y-95890418D01*
X195066041Y-95753019D01*
X195066039Y-95753017D01*
X194892642Y-95645655D01*
X194892635Y-95645651D01*
X194756715Y-95592996D01*
X194702456Y-95571976D01*
X194501976Y-95534500D01*
X194298024Y-95534500D01*
X194097544Y-95571976D01*
X194097541Y-95571976D01*
X194097541Y-95571977D01*
X193907364Y-95645651D01*
X193907357Y-95645655D01*
X193733960Y-95753017D01*
X193733958Y-95753019D01*
X193583237Y-95890418D01*
X193460327Y-96053178D01*
X193369422Y-96235739D01*
X193369417Y-96235752D01*
X193313602Y-96431917D01*
X193294785Y-96634999D01*
X193294785Y-96635000D01*
X192965215Y-96635000D01*
X192946397Y-96431917D01*
X192890582Y-96235750D01*
X192890574Y-96235734D01*
X192833335Y-96120782D01*
X192799673Y-96053179D01*
X192676764Y-95890421D01*
X192676762Y-95890418D01*
X192526041Y-95753019D01*
X192526039Y-95753017D01*
X192352642Y-95645655D01*
X192352635Y-95645651D01*
X192216715Y-95592996D01*
X192162456Y-95571976D01*
X191961976Y-95534500D01*
X191758024Y-95534500D01*
X191557544Y-95571976D01*
X191557541Y-95571976D01*
X191557541Y-95571977D01*
X191367364Y-95645651D01*
X191367357Y-95645655D01*
X191193960Y-95753017D01*
X191193958Y-95753019D01*
X191043237Y-95890418D01*
X190920327Y-96053178D01*
X190829422Y-96235739D01*
X190829417Y-96235752D01*
X190773602Y-96431917D01*
X190754785Y-96634999D01*
X190754785Y-96635000D01*
X190425215Y-96635000D01*
X190406397Y-96431917D01*
X190350582Y-96235750D01*
X190350574Y-96235734D01*
X190293335Y-96120782D01*
X190259673Y-96053179D01*
X190136764Y-95890421D01*
X190136762Y-95890418D01*
X189986041Y-95753019D01*
X189986039Y-95753017D01*
X189812642Y-95645655D01*
X189812635Y-95645651D01*
X189676715Y-95592996D01*
X189622456Y-95571976D01*
X189421976Y-95534500D01*
X189218024Y-95534500D01*
X189017544Y-95571976D01*
X189017541Y-95571976D01*
X189017541Y-95571977D01*
X188827364Y-95645651D01*
X188827357Y-95645655D01*
X188653960Y-95753017D01*
X188653958Y-95753019D01*
X188503237Y-95890418D01*
X188380327Y-96053178D01*
X188289422Y-96235739D01*
X188289417Y-96235752D01*
X188233602Y-96431917D01*
X188214785Y-96634999D01*
X188214785Y-96635000D01*
X187885215Y-96635000D01*
X187866397Y-96431917D01*
X187810582Y-96235750D01*
X187810574Y-96235734D01*
X187753335Y-96120782D01*
X187719673Y-96053179D01*
X187596764Y-95890421D01*
X187596762Y-95890418D01*
X187446041Y-95753019D01*
X187446039Y-95753017D01*
X187272642Y-95645655D01*
X187272635Y-95645651D01*
X187136715Y-95592996D01*
X187082456Y-95571976D01*
X186881976Y-95534500D01*
X186678024Y-95534500D01*
X186477544Y-95571976D01*
X186477541Y-95571976D01*
X186477541Y-95571977D01*
X186287364Y-95645651D01*
X186287357Y-95645655D01*
X186113960Y-95753017D01*
X186113958Y-95753019D01*
X185963237Y-95890418D01*
X185840327Y-96053178D01*
X185749422Y-96235739D01*
X185749417Y-96235752D01*
X185693602Y-96431917D01*
X185674785Y-96634999D01*
X185674785Y-96635000D01*
X185345215Y-96635000D01*
X185326397Y-96431917D01*
X185270582Y-96235750D01*
X185270574Y-96235734D01*
X185213335Y-96120782D01*
X185179673Y-96053179D01*
X185056764Y-95890421D01*
X185056762Y-95890418D01*
X184906041Y-95753019D01*
X184906039Y-95753017D01*
X184732642Y-95645655D01*
X184732635Y-95645651D01*
X184596715Y-95592996D01*
X184542456Y-95571976D01*
X184341976Y-95534500D01*
X184138024Y-95534500D01*
X183937544Y-95571976D01*
X183937541Y-95571976D01*
X183937541Y-95571977D01*
X183747364Y-95645651D01*
X183747357Y-95645655D01*
X183573960Y-95753017D01*
X183573958Y-95753019D01*
X183423237Y-95890418D01*
X183300327Y-96053178D01*
X183209422Y-96235739D01*
X183209417Y-96235752D01*
X183153602Y-96431917D01*
X183134785Y-96634999D01*
X183134785Y-96635000D01*
X182805215Y-96635000D01*
X182786397Y-96431917D01*
X182730582Y-96235750D01*
X182730574Y-96235734D01*
X182673335Y-96120782D01*
X182639673Y-96053179D01*
X182516764Y-95890421D01*
X182516762Y-95890418D01*
X182366041Y-95753019D01*
X182366039Y-95753017D01*
X182192642Y-95645655D01*
X182192635Y-95645651D01*
X182056715Y-95592996D01*
X182002456Y-95571976D01*
X181801976Y-95534500D01*
X181598024Y-95534500D01*
X181397544Y-95571976D01*
X181397541Y-95571976D01*
X181397541Y-95571977D01*
X181207364Y-95645651D01*
X181207357Y-95645655D01*
X181033960Y-95753017D01*
X181033958Y-95753019D01*
X180883237Y-95890418D01*
X180760327Y-96053178D01*
X180669422Y-96235739D01*
X180669417Y-96235752D01*
X180613602Y-96431917D01*
X180594785Y-96634999D01*
X180594785Y-96635000D01*
X180265215Y-96635000D01*
X180246397Y-96431917D01*
X180190582Y-96235750D01*
X180190574Y-96235734D01*
X180133335Y-96120782D01*
X180099673Y-96053179D01*
X179976764Y-95890421D01*
X179976762Y-95890418D01*
X179826041Y-95753019D01*
X179826039Y-95753017D01*
X179652642Y-95645655D01*
X179652635Y-95645651D01*
X179516715Y-95592996D01*
X179462456Y-95571976D01*
X179261976Y-95534500D01*
X179058024Y-95534500D01*
X178857544Y-95571976D01*
X178857541Y-95571976D01*
X178857541Y-95571977D01*
X178667364Y-95645651D01*
X178667357Y-95645655D01*
X178493960Y-95753017D01*
X178493958Y-95753019D01*
X178343237Y-95890418D01*
X178220327Y-96053178D01*
X178129422Y-96235739D01*
X178129417Y-96235752D01*
X178073602Y-96431917D01*
X178054785Y-96634999D01*
X178054785Y-96635000D01*
X178073602Y-96838082D01*
X178129417Y-97034247D01*
X178129422Y-97034260D01*
X178220327Y-97216821D01*
X178343237Y-97379581D01*
X178493958Y-97516980D01*
X178493960Y-97516982D01*
X178672237Y-97627366D01*
X178671375Y-97628756D01*
X178716998Y-97671041D01*
X178734500Y-97734555D01*
X178734500Y-98112389D01*
X178714815Y-98179428D01*
X178698181Y-98200070D01*
X167860071Y-109038181D01*
X167798748Y-109071666D01*
X167772390Y-109074500D01*
X164636613Y-109074500D01*
X164613648Y-109081962D01*
X164594731Y-109086503D01*
X164570882Y-109090280D01*
X164549367Y-109101243D01*
X164531395Y-109108688D01*
X164508427Y-109116151D01*
X164508422Y-109116153D01*
X164488890Y-109130344D01*
X164472310Y-109140505D01*
X164450790Y-109151471D01*
X164450784Y-109151475D01*
X164390736Y-109211518D01*
X164390494Y-109211765D01*
X162642236Y-110960022D01*
X162580913Y-110993507D01*
X162511221Y-110988523D01*
X162455288Y-110946651D01*
X162441122Y-110922430D01*
X162432206Y-110902235D01*
X162352765Y-110822794D01*
X162328267Y-110811977D01*
X162249992Y-110777415D01*
X162224865Y-110774500D01*
X160535143Y-110774500D01*
X160535117Y-110774502D01*
X160510012Y-110777413D01*
X160510008Y-110777415D01*
X160407235Y-110822793D01*
X160327794Y-110902234D01*
X160282415Y-111005006D01*
X160282415Y-111005008D01*
X160279500Y-111030131D01*
X160279500Y-112719856D01*
X160279502Y-112719882D01*
X160282413Y-112744987D01*
X160282415Y-112744991D01*
X160327793Y-112847764D01*
X160327794Y-112847765D01*
X160407235Y-112927206D01*
X160510009Y-112972585D01*
X160535135Y-112975500D01*
X162224864Y-112975499D01*
X162231206Y-112974763D01*
X162300065Y-112986587D01*
X162351603Y-113033764D01*
X162369500Y-113097936D01*
X162369500Y-113977389D01*
X162349815Y-114044428D01*
X162333181Y-114065070D01*
X160860071Y-115538181D01*
X160798748Y-115571666D01*
X160772390Y-115574500D01*
X158932604Y-115574500D01*
X158909639Y-115581962D01*
X158890722Y-115586503D01*
X158866873Y-115590280D01*
X158845358Y-115601243D01*
X158827385Y-115608688D01*
X158804418Y-115616150D01*
X158804416Y-115616151D01*
X158784883Y-115630343D01*
X158768301Y-115640505D01*
X158746782Y-115651470D01*
X158658541Y-115739711D01*
X158658540Y-115739710D01*
X156651472Y-117746778D01*
X156640510Y-117768293D01*
X156630346Y-117784878D01*
X156616152Y-117804414D01*
X156616151Y-117804417D01*
X156608688Y-117827385D01*
X156601243Y-117845358D01*
X156590280Y-117866873D01*
X156586503Y-117890722D01*
X156581962Y-117909639D01*
X156574500Y-117932604D01*
X156574500Y-118876000D01*
X156554815Y-118943039D01*
X156502011Y-118988794D01*
X156450500Y-119000000D01*
X153549500Y-119000000D01*
X153482461Y-118980315D01*
X153436706Y-118927511D01*
X153425500Y-118876000D01*
X153425500Y-118049500D01*
X153445185Y-117982461D01*
X153497989Y-117936706D01*
X153549500Y-117925500D01*
X155567392Y-117925500D01*
X155567393Y-117925500D01*
X155590360Y-117918036D01*
X155609276Y-117913495D01*
X155633126Y-117909719D01*
X155654636Y-117898757D01*
X155672614Y-117891310D01*
X155695581Y-117883849D01*
X155715118Y-117869653D01*
X155731706Y-117859488D01*
X155753220Y-117848528D01*
X155848528Y-117753220D01*
X155848528Y-117753219D01*
X158824554Y-114777194D01*
X158824554Y-114777193D01*
X158848528Y-114753220D01*
X158859493Y-114731699D01*
X158869650Y-114715125D01*
X158883850Y-114695581D01*
X158891311Y-114672614D01*
X158898760Y-114654633D01*
X158909718Y-114633129D01*
X158909718Y-114633128D01*
X158909718Y-114633127D01*
X158909719Y-114633126D01*
X158913496Y-114609273D01*
X158918035Y-114590366D01*
X158925500Y-114567393D01*
X158925500Y-114432607D01*
X158925500Y-114432606D01*
X158925500Y-111727608D01*
X158945185Y-111660570D01*
X158961819Y-111639928D01*
X160139929Y-110461819D01*
X160201252Y-110428334D01*
X160227610Y-110425500D01*
X162567392Y-110425500D01*
X162567393Y-110425500D01*
X162590360Y-110418036D01*
X162609276Y-110413495D01*
X162633126Y-110409719D01*
X162654636Y-110398757D01*
X162672614Y-110391310D01*
X162695581Y-110383849D01*
X162715118Y-110369653D01*
X162731706Y-110359488D01*
X162753220Y-110348528D01*
X162848528Y-110253220D01*
X162848528Y-110253219D01*
X164639927Y-108461819D01*
X164701251Y-108428334D01*
X164727609Y-108425500D01*
X167567392Y-108425500D01*
X167567393Y-108425500D01*
X167590360Y-108418036D01*
X167609276Y-108413495D01*
X167633126Y-108409719D01*
X167654636Y-108398757D01*
X167672614Y-108391310D01*
X167695581Y-108383849D01*
X167715118Y-108369653D01*
X167731706Y-108359488D01*
X167753220Y-108348528D01*
X167848528Y-108253220D01*
X174404553Y-101697195D01*
X174404553Y-101697194D01*
X174428528Y-101673220D01*
X174439498Y-101651689D01*
X174449647Y-101635126D01*
X174463849Y-101615581D01*
X174471309Y-101592616D01*
X174478759Y-101574634D01*
X174489718Y-101553128D01*
X174489718Y-101553127D01*
X174489719Y-101553126D01*
X174493495Y-101529276D01*
X174498036Y-101510360D01*
X174505500Y-101487393D01*
X174505500Y-101352607D01*
X174505500Y-97734554D01*
X174525185Y-97667516D01*
X174568555Y-97628645D01*
X174567763Y-97627366D01*
X174746039Y-97516982D01*
X174746038Y-97516982D01*
X174746041Y-97516981D01*
X174896764Y-97379579D01*
X175019673Y-97216821D01*
X175110582Y-97034250D01*
X175166397Y-96838083D01*
X175185215Y-96635000D01*
X175514785Y-96635000D01*
X175533602Y-96838082D01*
X175589417Y-97034247D01*
X175589422Y-97034260D01*
X175680327Y-97216821D01*
X175803237Y-97379581D01*
X175953958Y-97516980D01*
X175953960Y-97516982D01*
X176053141Y-97578392D01*
X176127363Y-97624348D01*
X176317544Y-97698024D01*
X176518024Y-97735500D01*
X176518026Y-97735500D01*
X176721974Y-97735500D01*
X176721976Y-97735500D01*
X176922456Y-97698024D01*
X177112637Y-97624348D01*
X177286041Y-97516981D01*
X177436764Y-97379579D01*
X177559673Y-97216821D01*
X177650582Y-97034250D01*
X177706397Y-96838083D01*
X177725215Y-96635000D01*
X177706397Y-96431917D01*
X177650582Y-96235750D01*
X177650574Y-96235734D01*
X177593335Y-96120782D01*
X177559673Y-96053179D01*
X177436764Y-95890421D01*
X177436762Y-95890418D01*
X177286041Y-95753019D01*
X177286039Y-95753017D01*
X177112642Y-95645655D01*
X177112635Y-95645651D01*
X176976715Y-95592996D01*
X176922456Y-95571976D01*
X176721976Y-95534500D01*
X176518024Y-95534500D01*
X176317544Y-95571976D01*
X176317541Y-95571976D01*
X176317541Y-95571977D01*
X176127364Y-95645651D01*
X176127357Y-95645655D01*
X175953960Y-95753017D01*
X175953958Y-95753019D01*
X175803237Y-95890418D01*
X175680327Y-96053178D01*
X175589422Y-96235739D01*
X175589417Y-96235752D01*
X175533602Y-96431917D01*
X175514785Y-96634999D01*
X175514785Y-96635000D01*
X175185215Y-96635000D01*
X175166397Y-96431917D01*
X175110582Y-96235750D01*
X175110574Y-96235734D01*
X175053335Y-96120782D01*
X175019673Y-96053179D01*
X174896764Y-95890421D01*
X174896762Y-95890418D01*
X174746041Y-95753019D01*
X174746039Y-95753017D01*
X174572642Y-95645655D01*
X174572635Y-95645651D01*
X174436715Y-95592996D01*
X174382456Y-95571976D01*
X174181976Y-95534500D01*
X173978024Y-95534500D01*
X173777544Y-95571976D01*
X173777541Y-95571976D01*
X173777541Y-95571977D01*
X173587364Y-95645651D01*
X173587357Y-95645655D01*
X173413960Y-95753017D01*
X173413958Y-95753019D01*
X173263237Y-95890418D01*
X173140327Y-96053178D01*
X173049422Y-96235739D01*
X173049417Y-96235752D01*
X172993602Y-96431917D01*
X172974785Y-96634999D01*
X172974785Y-96635000D01*
X172993602Y-96838082D01*
X173049417Y-97034247D01*
X173049422Y-97034260D01*
X173140327Y-97216821D01*
X173263237Y-97379581D01*
X173413958Y-97516980D01*
X173413960Y-97516982D01*
X173592237Y-97627366D01*
X173591375Y-97628756D01*
X173636998Y-97671041D01*
X173654500Y-97734555D01*
X173654500Y-101192389D01*
X173634815Y-101259428D01*
X173618181Y-101280070D01*
X167360071Y-107538181D01*
X167298748Y-107571666D01*
X167272390Y-107574500D01*
X164432604Y-107574500D01*
X164409639Y-107581962D01*
X164390722Y-107586503D01*
X164366873Y-107590280D01*
X164345358Y-107601243D01*
X164327385Y-107608688D01*
X164304418Y-107616150D01*
X164304416Y-107616151D01*
X164284883Y-107630343D01*
X164268301Y-107640505D01*
X164246782Y-107651470D01*
X164158541Y-107739711D01*
X164158540Y-107739710D01*
X164158538Y-107739713D01*
X164151470Y-107746780D01*
X164151470Y-107746781D01*
X163244724Y-108653528D01*
X162360071Y-109538181D01*
X162298748Y-109571666D01*
X162272390Y-109574500D01*
X159932604Y-109574500D01*
X159909639Y-109581962D01*
X159890722Y-109586503D01*
X159866873Y-109590280D01*
X159845358Y-109601243D01*
X159827386Y-109608688D01*
X159823367Y-109609994D01*
X159753526Y-109611991D01*
X159693692Y-109575913D01*
X159662862Y-109513213D01*
X159670824Y-109443798D01*
X159697362Y-109404385D01*
X160139928Y-108961819D01*
X160201252Y-108928334D01*
X160227610Y-108925500D01*
X162067392Y-108925500D01*
X162067393Y-108925500D01*
X162090360Y-108918036D01*
X162109276Y-108913495D01*
X162133126Y-108909719D01*
X162154636Y-108898757D01*
X162172614Y-108891310D01*
X162195581Y-108883849D01*
X162215118Y-108869653D01*
X162231706Y-108859488D01*
X162253220Y-108848528D01*
X162348528Y-108753220D01*
X162348528Y-108753219D01*
X164139928Y-106961818D01*
X164201251Y-106928334D01*
X164227609Y-106925500D01*
X167067392Y-106925500D01*
X167067393Y-106925500D01*
X167090360Y-106918036D01*
X167109276Y-106913495D01*
X167133126Y-106909719D01*
X167154636Y-106898757D01*
X167172614Y-106891310D01*
X167195581Y-106883849D01*
X167215118Y-106869653D01*
X167231706Y-106859488D01*
X167253220Y-106848528D01*
X167348528Y-106753220D01*
X171864554Y-102237194D01*
X171864554Y-102237193D01*
X171888528Y-102213220D01*
X171899493Y-102191698D01*
X171909652Y-102175120D01*
X171923850Y-102155580D01*
X171931314Y-102132605D01*
X171938751Y-102114650D01*
X171949719Y-102093126D01*
X171953496Y-102069271D01*
X171958034Y-102050366D01*
X171965500Y-102027393D01*
X171965500Y-101892607D01*
X171965500Y-101892606D01*
X171965500Y-97734554D01*
X171985185Y-97667516D01*
X172028555Y-97628645D01*
X172027763Y-97627366D01*
X172206039Y-97516982D01*
X172206038Y-97516982D01*
X172206041Y-97516981D01*
X172356764Y-97379579D01*
X172479673Y-97216821D01*
X172570582Y-97034250D01*
X172626397Y-96838083D01*
X172645215Y-96635000D01*
X172626397Y-96431917D01*
X172570582Y-96235750D01*
X172570574Y-96235734D01*
X172513335Y-96120782D01*
X172479673Y-96053179D01*
X172356764Y-95890421D01*
X172356762Y-95890418D01*
X172206041Y-95753019D01*
X172206039Y-95753017D01*
X172032642Y-95645655D01*
X172032635Y-95645651D01*
X171896715Y-95592996D01*
X171842456Y-95571976D01*
X171641976Y-95534500D01*
X171438024Y-95534500D01*
X171237544Y-95571976D01*
X171237541Y-95571976D01*
X171237541Y-95571977D01*
X171047364Y-95645651D01*
X171047357Y-95645655D01*
X170873960Y-95753017D01*
X170873958Y-95753019D01*
X170723237Y-95890418D01*
X170600327Y-96053178D01*
X170509422Y-96235739D01*
X170509417Y-96235752D01*
X170453602Y-96431917D01*
X170434785Y-96634999D01*
X170434785Y-96635000D01*
X170453602Y-96838082D01*
X170509417Y-97034247D01*
X170509422Y-97034260D01*
X170600327Y-97216821D01*
X170723237Y-97379581D01*
X170873958Y-97516980D01*
X170873960Y-97516982D01*
X171052237Y-97627366D01*
X171051375Y-97628756D01*
X171096998Y-97671041D01*
X171114500Y-97734555D01*
X171114500Y-101732389D01*
X171094815Y-101799428D01*
X171078181Y-101820070D01*
X169595615Y-103302635D01*
X169534292Y-103336120D01*
X169464600Y-103331136D01*
X169408667Y-103289264D01*
X169384250Y-103223800D01*
X169390003Y-103176638D01*
X169391314Y-103172601D01*
X169398759Y-103154634D01*
X169409718Y-103133128D01*
X169409718Y-103133127D01*
X169409719Y-103133126D01*
X169413495Y-103109276D01*
X169418036Y-103090360D01*
X169425500Y-103067393D01*
X169425500Y-102932607D01*
X169425500Y-97734554D01*
X169445185Y-97667516D01*
X169488555Y-97628645D01*
X169487763Y-97627366D01*
X169666039Y-97516982D01*
X169666038Y-97516982D01*
X169666041Y-97516981D01*
X169816764Y-97379579D01*
X169939673Y-97216821D01*
X170030582Y-97034250D01*
X170086397Y-96838083D01*
X170105215Y-96635000D01*
X170086397Y-96431917D01*
X170030582Y-96235750D01*
X170030574Y-96235734D01*
X169973335Y-96120782D01*
X169939673Y-96053179D01*
X169816764Y-95890421D01*
X169816762Y-95890418D01*
X169666041Y-95753019D01*
X169666039Y-95753017D01*
X169492642Y-95645655D01*
X169492635Y-95645651D01*
X169356715Y-95592996D01*
X169302456Y-95571976D01*
X169101976Y-95534500D01*
X168898024Y-95534500D01*
X168697544Y-95571976D01*
X168697541Y-95571976D01*
X168697541Y-95571977D01*
X168507364Y-95645651D01*
X168507357Y-95645655D01*
X168333960Y-95753017D01*
X168333958Y-95753019D01*
X168183237Y-95890418D01*
X168060327Y-96053178D01*
X167969422Y-96235739D01*
X167969417Y-96235752D01*
X167913602Y-96431917D01*
X167894785Y-96634999D01*
X167894785Y-96635000D01*
X167913602Y-96838082D01*
X167969417Y-97034247D01*
X167969422Y-97034260D01*
X168060327Y-97216821D01*
X168183237Y-97379581D01*
X168333958Y-97516980D01*
X168333960Y-97516982D01*
X168512237Y-97627366D01*
X168511375Y-97628756D01*
X168556998Y-97671041D01*
X168574500Y-97734555D01*
X168574500Y-102772390D01*
X168554815Y-102839429D01*
X168538181Y-102860071D01*
X166360071Y-105038181D01*
X166298748Y-105071666D01*
X166272390Y-105074500D01*
X163432604Y-105074500D01*
X163409639Y-105081962D01*
X163390722Y-105086503D01*
X163366873Y-105090280D01*
X163345358Y-105101243D01*
X163327385Y-105108688D01*
X163304418Y-105116150D01*
X163304416Y-105116151D01*
X163284883Y-105130343D01*
X163268301Y-105140505D01*
X163246782Y-105151470D01*
X163158541Y-105239711D01*
X163158540Y-105239710D01*
X163158538Y-105239713D01*
X163151470Y-105246780D01*
X163151470Y-105246781D01*
X162246780Y-106151472D01*
X161360071Y-107038181D01*
X161298748Y-107071666D01*
X161272390Y-107074500D01*
X159567393Y-107074500D01*
X159432607Y-107074500D01*
X159432603Y-107074501D01*
X159432604Y-107074501D01*
X159409635Y-107081963D01*
X159390722Y-107086503D01*
X159366874Y-107090280D01*
X159345359Y-107101242D01*
X159327389Y-107108685D01*
X159304421Y-107116148D01*
X159304417Y-107116149D01*
X159284880Y-107130344D01*
X159268298Y-107140506D01*
X159246783Y-107151469D01*
X159246780Y-107151471D01*
X156360071Y-110038181D01*
X156298748Y-110071666D01*
X156272390Y-110074500D01*
X156043245Y-110074500D01*
X156023847Y-110072973D01*
X156000000Y-110069196D01*
X155999999Y-110069196D01*
X155966512Y-110074500D01*
X155866878Y-110090279D01*
X155746778Y-110151473D01*
X155746774Y-110151476D01*
X155651476Y-110246774D01*
X155651473Y-110246778D01*
X155590279Y-110366878D01*
X155569196Y-110499997D01*
X155569196Y-110500000D01*
X155572973Y-110523846D01*
X155574500Y-110543245D01*
X155574500Y-113272390D01*
X155554815Y-113339429D01*
X155538181Y-113360071D01*
X153860071Y-115038181D01*
X153798748Y-115071666D01*
X153772390Y-115074500D01*
X145043245Y-115074500D01*
X145023847Y-115072973D01*
X145000000Y-115069196D01*
X144999999Y-115069196D01*
X144966512Y-115074500D01*
X144866878Y-115090279D01*
X144746778Y-115151473D01*
X144746774Y-115151476D01*
X144651476Y-115246774D01*
X144651473Y-115246778D01*
X144590279Y-115366878D01*
X144569196Y-115499997D01*
X144569196Y-115500000D01*
X144572093Y-115518294D01*
X144572973Y-115523846D01*
X144574500Y-115543245D01*
X144574500Y-118876000D01*
X144554815Y-118943039D01*
X144502011Y-118988794D01*
X144450500Y-119000000D01*
X110124500Y-119000000D01*
X110057461Y-118980315D01*
X110011706Y-118927511D01*
X110000500Y-118876000D01*
X110000500Y-110500000D01*
X111069196Y-110500000D01*
X111074500Y-110533488D01*
X111090279Y-110633121D01*
X111090280Y-110633124D01*
X111090281Y-110633126D01*
X111151472Y-110753220D01*
X111151473Y-110753221D01*
X111151476Y-110753225D01*
X111246774Y-110848523D01*
X111246778Y-110848526D01*
X111246780Y-110848528D01*
X111366874Y-110909719D01*
X111366876Y-110909719D01*
X111366878Y-110909720D01*
X111499998Y-110930804D01*
X111500000Y-110930804D01*
X111523847Y-110927026D01*
X111543245Y-110925500D01*
X112272390Y-110925500D01*
X112339429Y-110945185D01*
X112360071Y-110961819D01*
X113762912Y-112364659D01*
X113796397Y-112425982D01*
X113798327Y-112467286D01*
X113794355Y-112499999D01*
X113814859Y-112668869D01*
X113814860Y-112668874D01*
X113875182Y-112827931D01*
X113930117Y-112907516D01*
X113971817Y-112967929D01*
X114046130Y-113033764D01*
X114099150Y-113080736D01*
X114238497Y-113153871D01*
X114249775Y-113159790D01*
X114414944Y-113200500D01*
X114585056Y-113200500D01*
X114750225Y-113159790D01*
X114829692Y-113118081D01*
X114900849Y-113080736D01*
X114900850Y-113080734D01*
X114900852Y-113080734D01*
X115028183Y-112967929D01*
X115124818Y-112827930D01*
X115185140Y-112668872D01*
X115205645Y-112500000D01*
X115185140Y-112331128D01*
X115124818Y-112172070D01*
X115100651Y-112137059D01*
X115059942Y-112078082D01*
X115028183Y-112032071D01*
X114900852Y-111919266D01*
X114900849Y-111919263D01*
X114750226Y-111840210D01*
X114585056Y-111799500D01*
X114452609Y-111799500D01*
X114385570Y-111779815D01*
X114364928Y-111763181D01*
X113594764Y-110993017D01*
X112777194Y-110175446D01*
X112777193Y-110175446D01*
X112753220Y-110151472D01*
X112753219Y-110151471D01*
X112753216Y-110151469D01*
X112731703Y-110140508D01*
X112715111Y-110130341D01*
X112695581Y-110116151D01*
X112695579Y-110116150D01*
X112695580Y-110116150D01*
X112672615Y-110108688D01*
X112654641Y-110101243D01*
X112633127Y-110090281D01*
X112628010Y-110089470D01*
X112609273Y-110086503D01*
X112590358Y-110081962D01*
X112567394Y-110074500D01*
X112567393Y-110074500D01*
X112533488Y-110074500D01*
X112049500Y-110074500D01*
X111982461Y-110054815D01*
X111936706Y-110002011D01*
X111925500Y-109950500D01*
X111925500Y-109214856D01*
X121024500Y-109214856D01*
X121024502Y-109214882D01*
X121027413Y-109239987D01*
X121027415Y-109239991D01*
X121072793Y-109342764D01*
X121072794Y-109342765D01*
X121152235Y-109422206D01*
X121255009Y-109467585D01*
X121280135Y-109470500D01*
X122969864Y-109470499D01*
X122969879Y-109470497D01*
X122969882Y-109470497D01*
X122994987Y-109467586D01*
X122994988Y-109467585D01*
X122994991Y-109467585D01*
X123097765Y-109422206D01*
X123177206Y-109342765D01*
X123222585Y-109239991D01*
X123225500Y-109214865D01*
X123225499Y-108370000D01*
X123559785Y-108370000D01*
X123578602Y-108573082D01*
X123634417Y-108769247D01*
X123634422Y-108769260D01*
X123725327Y-108951821D01*
X123848237Y-109114581D01*
X123998958Y-109251980D01*
X123998960Y-109251982D01*
X124098141Y-109313392D01*
X124172363Y-109359348D01*
X124362544Y-109433024D01*
X124563024Y-109470500D01*
X124563026Y-109470500D01*
X124766974Y-109470500D01*
X124766976Y-109470500D01*
X124967456Y-109433024D01*
X125157637Y-109359348D01*
X125331041Y-109251981D01*
X125464471Y-109130344D01*
X125481762Y-109114581D01*
X125481764Y-109114579D01*
X125604673Y-108951821D01*
X125695582Y-108769250D01*
X125751397Y-108573083D01*
X125770215Y-108370000D01*
X126099785Y-108370000D01*
X126118602Y-108573082D01*
X126174417Y-108769247D01*
X126174422Y-108769260D01*
X126265327Y-108951821D01*
X126388237Y-109114581D01*
X126538958Y-109251980D01*
X126538960Y-109251982D01*
X126638141Y-109313392D01*
X126712363Y-109359348D01*
X126902544Y-109433024D01*
X127103024Y-109470500D01*
X127103026Y-109470500D01*
X127306974Y-109470500D01*
X127306976Y-109470500D01*
X127507456Y-109433024D01*
X127697637Y-109359348D01*
X127871041Y-109251981D01*
X128004471Y-109130344D01*
X128021762Y-109114581D01*
X128021764Y-109114579D01*
X128144673Y-108951821D01*
X128235582Y-108769250D01*
X128291397Y-108573083D01*
X128310215Y-108370000D01*
X128639785Y-108370000D01*
X128658602Y-108573082D01*
X128714417Y-108769247D01*
X128714422Y-108769260D01*
X128805327Y-108951821D01*
X128928237Y-109114581D01*
X129078958Y-109251980D01*
X129078960Y-109251982D01*
X129178141Y-109313392D01*
X129252363Y-109359348D01*
X129442544Y-109433024D01*
X129643024Y-109470500D01*
X129643026Y-109470500D01*
X129846974Y-109470500D01*
X129846976Y-109470500D01*
X130047456Y-109433024D01*
X130237637Y-109359348D01*
X130411041Y-109251981D01*
X130544471Y-109130344D01*
X130561762Y-109114581D01*
X130561764Y-109114579D01*
X130684673Y-108951821D01*
X130775582Y-108769250D01*
X130792058Y-108711342D01*
X130829334Y-108652255D01*
X130892644Y-108622697D01*
X130961884Y-108632059D01*
X131015070Y-108677368D01*
X131031097Y-108713188D01*
X131058731Y-108816319D01*
X131058734Y-108816326D01*
X131154865Y-109022482D01*
X131285342Y-109208820D01*
X131446179Y-109369657D01*
X131632517Y-109500134D01*
X131838673Y-109596265D01*
X131838682Y-109596269D01*
X132034999Y-109648872D01*
X132035000Y-109648871D01*
X132035000Y-108685686D01*
X132046955Y-108697641D01*
X132159852Y-108755165D01*
X132253519Y-108770000D01*
X132316481Y-108770000D01*
X132410148Y-108755165D01*
X132523045Y-108697641D01*
X132535000Y-108685686D01*
X132535000Y-109648872D01*
X132731317Y-109596269D01*
X132731326Y-109596265D01*
X132937482Y-109500134D01*
X133123820Y-109369657D01*
X133284657Y-109208820D01*
X133415134Y-109022482D01*
X133511265Y-108816326D01*
X133511269Y-108816317D01*
X133538902Y-108713189D01*
X133575267Y-108653528D01*
X133638113Y-108622999D01*
X133707489Y-108631293D01*
X133761367Y-108675779D01*
X133777943Y-108711347D01*
X133794417Y-108769247D01*
X133794422Y-108769260D01*
X133885327Y-108951821D01*
X134008237Y-109114581D01*
X134158958Y-109251980D01*
X134158960Y-109251982D01*
X134258141Y-109313392D01*
X134332363Y-109359348D01*
X134522544Y-109433024D01*
X134723024Y-109470500D01*
X134723026Y-109470500D01*
X134926974Y-109470500D01*
X134926976Y-109470500D01*
X135127456Y-109433024D01*
X135317637Y-109359348D01*
X135491041Y-109251981D01*
X135624471Y-109130344D01*
X135641762Y-109114581D01*
X135641764Y-109114579D01*
X135764673Y-108951821D01*
X135855582Y-108769250D01*
X135911397Y-108573083D01*
X135930215Y-108370000D01*
X136259785Y-108370000D01*
X136278602Y-108573082D01*
X136334417Y-108769247D01*
X136334422Y-108769260D01*
X136425327Y-108951821D01*
X136548237Y-109114581D01*
X136698958Y-109251980D01*
X136698960Y-109251982D01*
X136798141Y-109313392D01*
X136872363Y-109359348D01*
X137062544Y-109433024D01*
X137263024Y-109470500D01*
X137263026Y-109470500D01*
X137466974Y-109470500D01*
X137466976Y-109470500D01*
X137667456Y-109433024D01*
X137706585Y-109417865D01*
X137776209Y-109412002D01*
X137837950Y-109444711D01*
X137839062Y-109445810D01*
X142629030Y-114235777D01*
X142629031Y-114235779D01*
X142629032Y-114235779D01*
X142646472Y-114253219D01*
X142646472Y-114253220D01*
X142741780Y-114348528D01*
X142763300Y-114359493D01*
X142779875Y-114369649D01*
X142799419Y-114383849D01*
X142822381Y-114391309D01*
X142840354Y-114398753D01*
X142861874Y-114409719D01*
X142885724Y-114413495D01*
X142904645Y-114418039D01*
X142920301Y-114423126D01*
X142927607Y-114425500D01*
X142961512Y-114425500D01*
X152878420Y-114425500D01*
X152945459Y-114445185D01*
X152966200Y-114462957D01*
X152966203Y-114462955D01*
X152966372Y-114463105D01*
X152971233Y-114467270D01*
X152971814Y-114467926D01*
X152971816Y-114467928D01*
X152971817Y-114467929D01*
X153013794Y-114505117D01*
X153099150Y-114580736D01*
X153239949Y-114654633D01*
X153249775Y-114659790D01*
X153414944Y-114700500D01*
X153585056Y-114700500D01*
X153750225Y-114659790D01*
X153864832Y-114599639D01*
X153900849Y-114580736D01*
X153900850Y-114580734D01*
X153900852Y-114580734D01*
X154028183Y-114467929D01*
X154124818Y-114327930D01*
X154185140Y-114168872D01*
X154205645Y-114000000D01*
X154185140Y-113831128D01*
X154124818Y-113672070D01*
X154118789Y-113663336D01*
X154068410Y-113590350D01*
X154028183Y-113532071D01*
X153900852Y-113419266D01*
X153900849Y-113419263D01*
X153750226Y-113340210D01*
X153585056Y-113299500D01*
X153414944Y-113299500D01*
X153249773Y-113340210D01*
X153099150Y-113419263D01*
X152971814Y-113532073D01*
X152971233Y-113532730D01*
X152970687Y-113533072D01*
X152966203Y-113537045D01*
X152965542Y-113536299D01*
X152912042Y-113569855D01*
X152878420Y-113574500D01*
X143222610Y-113574500D01*
X143155571Y-113554815D01*
X143134929Y-113538181D01*
X139423007Y-109826259D01*
X139389522Y-109764936D01*
X139394506Y-109695244D01*
X139436378Y-109639311D01*
X139501842Y-109614894D01*
X139542782Y-109618803D01*
X139654999Y-109648871D01*
X139655000Y-109648871D01*
X139655000Y-108685686D01*
X139666955Y-108697641D01*
X139779852Y-108755165D01*
X139873519Y-108770000D01*
X139936481Y-108770000D01*
X140030148Y-108755165D01*
X140143045Y-108697641D01*
X140155000Y-108685686D01*
X140155000Y-109648872D01*
X140351317Y-109596269D01*
X140351326Y-109596265D01*
X140557482Y-109500134D01*
X140743820Y-109369657D01*
X140904657Y-109208820D01*
X141035134Y-109022482D01*
X141131265Y-108816326D01*
X141131269Y-108816317D01*
X141183872Y-108620000D01*
X140220686Y-108620000D01*
X140232641Y-108608045D01*
X140290165Y-108495148D01*
X140309986Y-108370000D01*
X140290165Y-108244852D01*
X140232641Y-108131955D01*
X140220686Y-108120000D01*
X141183872Y-108120000D01*
X141183872Y-108119999D01*
X141131269Y-107923682D01*
X141131265Y-107923673D01*
X141035134Y-107717517D01*
X140904657Y-107531179D01*
X140743820Y-107370342D01*
X140557482Y-107239865D01*
X140351328Y-107143734D01*
X140155000Y-107091127D01*
X140155000Y-108054314D01*
X140143045Y-108042359D01*
X140030148Y-107984835D01*
X139936481Y-107970000D01*
X139873519Y-107970000D01*
X139779852Y-107984835D01*
X139666955Y-108042359D01*
X139655000Y-108054313D01*
X139655000Y-107091127D01*
X139458671Y-107143734D01*
X139252517Y-107239865D01*
X139066179Y-107370342D01*
X138905342Y-107531179D01*
X138774865Y-107717517D01*
X138678734Y-107923673D01*
X138678731Y-107923680D01*
X138651097Y-108026811D01*
X138614731Y-108086471D01*
X138551884Y-108117000D01*
X138482509Y-108108705D01*
X138428631Y-108064219D01*
X138412056Y-108028651D01*
X138411532Y-108026811D01*
X138395582Y-107970750D01*
X138373050Y-107925500D01*
X138325012Y-107829026D01*
X138304673Y-107788179D01*
X138202199Y-107652481D01*
X138181762Y-107625418D01*
X138031041Y-107488019D01*
X138031039Y-107488017D01*
X137857642Y-107380655D01*
X137857635Y-107380651D01*
X137720799Y-107327641D01*
X137667456Y-107306976D01*
X137466976Y-107269500D01*
X137263024Y-107269500D01*
X137062544Y-107306976D01*
X137062541Y-107306976D01*
X137062541Y-107306977D01*
X136872364Y-107380651D01*
X136872357Y-107380655D01*
X136698960Y-107488017D01*
X136698958Y-107488019D01*
X136548237Y-107625418D01*
X136425327Y-107788178D01*
X136334422Y-107970739D01*
X136334417Y-107970752D01*
X136278602Y-108166917D01*
X136259785Y-108369999D01*
X136259785Y-108370000D01*
X135930215Y-108370000D01*
X135911397Y-108166917D01*
X135855582Y-107970750D01*
X135833050Y-107925500D01*
X135785012Y-107829026D01*
X135764673Y-107788179D01*
X135662199Y-107652481D01*
X135641762Y-107625418D01*
X135491041Y-107488019D01*
X135491039Y-107488017D01*
X135317642Y-107380655D01*
X135317635Y-107380651D01*
X135180799Y-107327641D01*
X135127456Y-107306976D01*
X134926976Y-107269500D01*
X134723024Y-107269500D01*
X134522544Y-107306976D01*
X134522541Y-107306976D01*
X134522541Y-107306977D01*
X134332364Y-107380651D01*
X134332357Y-107380655D01*
X134158960Y-107488017D01*
X134158958Y-107488019D01*
X134008237Y-107625418D01*
X133885327Y-107788178D01*
X133794422Y-107970739D01*
X133794418Y-107970750D01*
X133777943Y-108028653D01*
X133740663Y-108087746D01*
X133677353Y-108117303D01*
X133608113Y-108107939D01*
X133554927Y-108062629D01*
X133538902Y-108026810D01*
X133511269Y-107923682D01*
X133511265Y-107923673D01*
X133415134Y-107717517D01*
X133284657Y-107531179D01*
X133123820Y-107370342D01*
X132937482Y-107239865D01*
X132731328Y-107143734D01*
X132535000Y-107091127D01*
X132535000Y-108054313D01*
X132523045Y-108042359D01*
X132410148Y-107984835D01*
X132316481Y-107970000D01*
X132253519Y-107970000D01*
X132159852Y-107984835D01*
X132046955Y-108042359D01*
X132035000Y-108054314D01*
X132035000Y-107091127D01*
X131838671Y-107143734D01*
X131632517Y-107239865D01*
X131446179Y-107370342D01*
X131285342Y-107531179D01*
X131154865Y-107717517D01*
X131058734Y-107923673D01*
X131058731Y-107923680D01*
X131031097Y-108026811D01*
X130994731Y-108086471D01*
X130931884Y-108117000D01*
X130862509Y-108108705D01*
X130808631Y-108064219D01*
X130792056Y-108028651D01*
X130791532Y-108026811D01*
X130775582Y-107970750D01*
X130753050Y-107925500D01*
X130705012Y-107829026D01*
X130684673Y-107788179D01*
X130582199Y-107652481D01*
X130561762Y-107625418D01*
X130411041Y-107488019D01*
X130411039Y-107488017D01*
X130237642Y-107380655D01*
X130237635Y-107380651D01*
X130100799Y-107327641D01*
X130047456Y-107306976D01*
X129846976Y-107269500D01*
X129643024Y-107269500D01*
X129442544Y-107306976D01*
X129442541Y-107306976D01*
X129442541Y-107306977D01*
X129252364Y-107380651D01*
X129252357Y-107380655D01*
X129078960Y-107488017D01*
X129078958Y-107488019D01*
X128928237Y-107625418D01*
X128805327Y-107788178D01*
X128714422Y-107970739D01*
X128714417Y-107970752D01*
X128658602Y-108166917D01*
X128639785Y-108369999D01*
X128639785Y-108370000D01*
X128310215Y-108370000D01*
X128291397Y-108166917D01*
X128235582Y-107970750D01*
X128213050Y-107925500D01*
X128165012Y-107829026D01*
X128144673Y-107788179D01*
X128042199Y-107652481D01*
X128021762Y-107625418D01*
X127871041Y-107488019D01*
X127871039Y-107488017D01*
X127697642Y-107380655D01*
X127697635Y-107380651D01*
X127560799Y-107327641D01*
X127507456Y-107306976D01*
X127306976Y-107269500D01*
X127103024Y-107269500D01*
X126902544Y-107306976D01*
X126902541Y-107306976D01*
X126902541Y-107306977D01*
X126712364Y-107380651D01*
X126712357Y-107380655D01*
X126538960Y-107488017D01*
X126538958Y-107488019D01*
X126388237Y-107625418D01*
X126265327Y-107788178D01*
X126174422Y-107970739D01*
X126174417Y-107970752D01*
X126118602Y-108166917D01*
X126099785Y-108369999D01*
X126099785Y-108370000D01*
X125770215Y-108370000D01*
X125751397Y-108166917D01*
X125695582Y-107970750D01*
X125673050Y-107925500D01*
X125625012Y-107829026D01*
X125604673Y-107788179D01*
X125502199Y-107652481D01*
X125481762Y-107625418D01*
X125331041Y-107488019D01*
X125331039Y-107488017D01*
X125157642Y-107380655D01*
X125157635Y-107380651D01*
X125020799Y-107327641D01*
X124967456Y-107306976D01*
X124766976Y-107269500D01*
X124563024Y-107269500D01*
X124362544Y-107306976D01*
X124362541Y-107306976D01*
X124362541Y-107306977D01*
X124172364Y-107380651D01*
X124172357Y-107380655D01*
X123998960Y-107488017D01*
X123998958Y-107488019D01*
X123848237Y-107625418D01*
X123725327Y-107788178D01*
X123634422Y-107970739D01*
X123634417Y-107970752D01*
X123578602Y-108166917D01*
X123559785Y-108369999D01*
X123559785Y-108370000D01*
X123225499Y-108370000D01*
X123225499Y-107525136D01*
X123225497Y-107525117D01*
X123222586Y-107500012D01*
X123222585Y-107500010D01*
X123222585Y-107500009D01*
X123177206Y-107397235D01*
X123097765Y-107317794D01*
X123073267Y-107306977D01*
X122994992Y-107272415D01*
X122969865Y-107269500D01*
X121280143Y-107269500D01*
X121280117Y-107269502D01*
X121255012Y-107272413D01*
X121255008Y-107272415D01*
X121152235Y-107317793D01*
X121072794Y-107397234D01*
X121027415Y-107500006D01*
X121027415Y-107500008D01*
X121024500Y-107525131D01*
X121024500Y-109214856D01*
X111925500Y-109214856D01*
X111925500Y-107000002D01*
X114195034Y-107000002D01*
X114214858Y-107226599D01*
X114214860Y-107226610D01*
X114273730Y-107446317D01*
X114273734Y-107446326D01*
X114369865Y-107652481D01*
X114369866Y-107652483D01*
X114420973Y-107725471D01*
X114420974Y-107725472D01*
X115102046Y-107044399D01*
X115114835Y-107125148D01*
X115172359Y-107238045D01*
X115261955Y-107327641D01*
X115374852Y-107385165D01*
X115455599Y-107397953D01*
X114774526Y-108079025D01*
X114774526Y-108079026D01*
X114847512Y-108130131D01*
X114847516Y-108130133D01*
X115053673Y-108226265D01*
X115053682Y-108226269D01*
X115273389Y-108285139D01*
X115273400Y-108285141D01*
X115499998Y-108304966D01*
X115500002Y-108304966D01*
X115726599Y-108285141D01*
X115726610Y-108285139D01*
X115946317Y-108226269D01*
X115946331Y-108226264D01*
X116152478Y-108130136D01*
X116225472Y-108079025D01*
X115544401Y-107397953D01*
X115625148Y-107385165D01*
X115738045Y-107327641D01*
X115827641Y-107238045D01*
X115885165Y-107125148D01*
X115897953Y-107044400D01*
X116579025Y-107725472D01*
X116630136Y-107652478D01*
X116726264Y-107446331D01*
X116726269Y-107446317D01*
X116785139Y-107226610D01*
X116785141Y-107226599D01*
X116804966Y-107000002D01*
X116804966Y-106999997D01*
X116785141Y-106773400D01*
X116785139Y-106773389D01*
X116778873Y-106750002D01*
X152945034Y-106750002D01*
X152964858Y-106976599D01*
X152964860Y-106976610D01*
X153023730Y-107196317D01*
X153023734Y-107196326D01*
X153119865Y-107402481D01*
X153119866Y-107402483D01*
X153170973Y-107475471D01*
X153170974Y-107475472D01*
X153852046Y-106794399D01*
X153864835Y-106875148D01*
X153922359Y-106988045D01*
X154011955Y-107077641D01*
X154124852Y-107135165D01*
X154205599Y-107147953D01*
X153524526Y-107829025D01*
X153524526Y-107829026D01*
X153597512Y-107880131D01*
X153597516Y-107880133D01*
X153803673Y-107976265D01*
X153803682Y-107976269D01*
X154023389Y-108035139D01*
X154023400Y-108035141D01*
X154249998Y-108054966D01*
X154250002Y-108054966D01*
X154476599Y-108035141D01*
X154476610Y-108035139D01*
X154696317Y-107976269D01*
X154696331Y-107976264D01*
X154902478Y-107880136D01*
X154975472Y-107829025D01*
X154294401Y-107147953D01*
X154375148Y-107135165D01*
X154488045Y-107077641D01*
X154577641Y-106988045D01*
X154635165Y-106875148D01*
X154647953Y-106794400D01*
X155329025Y-107475472D01*
X155380136Y-107402478D01*
X155476264Y-107196331D01*
X155476269Y-107196317D01*
X155535139Y-106976610D01*
X155535141Y-106976599D01*
X155554966Y-106750002D01*
X155554966Y-106749997D01*
X155535141Y-106523400D01*
X155535139Y-106523389D01*
X155476269Y-106303682D01*
X155476265Y-106303673D01*
X155380133Y-106097516D01*
X155380131Y-106097512D01*
X155329026Y-106024526D01*
X155329025Y-106024526D01*
X154647953Y-106705598D01*
X154635165Y-106624852D01*
X154577641Y-106511955D01*
X154488045Y-106422359D01*
X154375148Y-106364835D01*
X154294400Y-106352046D01*
X154975472Y-105670974D01*
X154975471Y-105670973D01*
X154902483Y-105619866D01*
X154902481Y-105619865D01*
X154696326Y-105523734D01*
X154696317Y-105523730D01*
X154476610Y-105464860D01*
X154476599Y-105464858D01*
X154250002Y-105445034D01*
X154249998Y-105445034D01*
X154023400Y-105464858D01*
X154023389Y-105464860D01*
X153803682Y-105523730D01*
X153803673Y-105523734D01*
X153597513Y-105619868D01*
X153524527Y-105670972D01*
X153524526Y-105670973D01*
X154205600Y-106352046D01*
X154124852Y-106364835D01*
X154011955Y-106422359D01*
X153922359Y-106511955D01*
X153864835Y-106624852D01*
X153852046Y-106705599D01*
X153170973Y-106024526D01*
X153170972Y-106024527D01*
X153119868Y-106097513D01*
X153023734Y-106303673D01*
X153023730Y-106303682D01*
X152964860Y-106523389D01*
X152964858Y-106523400D01*
X152945034Y-106749997D01*
X152945034Y-106750002D01*
X116778873Y-106750002D01*
X116726269Y-106553682D01*
X116726265Y-106553673D01*
X116630133Y-106347516D01*
X116630131Y-106347512D01*
X116579026Y-106274526D01*
X116579025Y-106274526D01*
X115897953Y-106955598D01*
X115885165Y-106874852D01*
X115827641Y-106761955D01*
X115738045Y-106672359D01*
X115625148Y-106614835D01*
X115544400Y-106602046D01*
X116225472Y-105920974D01*
X116225471Y-105920973D01*
X116152483Y-105869866D01*
X116152481Y-105869865D01*
X115946326Y-105773734D01*
X115946317Y-105773730D01*
X115726610Y-105714860D01*
X115726599Y-105714858D01*
X115500002Y-105695034D01*
X115499998Y-105695034D01*
X115273400Y-105714858D01*
X115273389Y-105714860D01*
X115053682Y-105773730D01*
X115053673Y-105773734D01*
X114847513Y-105869868D01*
X114774527Y-105920972D01*
X114774526Y-105920973D01*
X115455600Y-106602046D01*
X115374852Y-106614835D01*
X115261955Y-106672359D01*
X115172359Y-106761955D01*
X115114835Y-106874852D01*
X115102046Y-106955599D01*
X114420973Y-106274526D01*
X114420972Y-106274527D01*
X114369868Y-106347513D01*
X114273734Y-106553673D01*
X114273730Y-106553682D01*
X114214860Y-106773389D01*
X114214858Y-106773400D01*
X114195034Y-106999997D01*
X114195034Y-107000002D01*
X111925500Y-107000002D01*
X111925500Y-102727610D01*
X111945185Y-102660571D01*
X111961819Y-102639929D01*
X112601748Y-102000000D01*
X114394785Y-102000000D01*
X114413602Y-102203082D01*
X114469417Y-102399247D01*
X114469422Y-102399260D01*
X114560327Y-102581821D01*
X114683237Y-102744581D01*
X114833958Y-102881980D01*
X114833960Y-102881982D01*
X114915723Y-102932607D01*
X115007363Y-102989348D01*
X115197544Y-103063024D01*
X115398024Y-103100500D01*
X115398026Y-103100500D01*
X115601974Y-103100500D01*
X115601976Y-103100500D01*
X115802456Y-103063024D01*
X115992637Y-102989348D01*
X116166041Y-102881981D01*
X116316764Y-102744579D01*
X116439673Y-102581821D01*
X116530582Y-102399250D01*
X116586397Y-102203083D01*
X116605215Y-102000000D01*
X116586397Y-101796917D01*
X116567464Y-101730375D01*
X116568050Y-101660513D01*
X116599047Y-101608765D01*
X117457812Y-100750000D01*
X121019785Y-100750000D01*
X121038602Y-100953082D01*
X121094417Y-101149247D01*
X121094422Y-101149260D01*
X121185327Y-101331821D01*
X121308237Y-101494581D01*
X121458958Y-101631980D01*
X121458960Y-101631982D01*
X121505040Y-101660513D01*
X121632363Y-101739348D01*
X121822544Y-101813024D01*
X122023024Y-101850500D01*
X122023026Y-101850500D01*
X122226974Y-101850500D01*
X122226976Y-101850500D01*
X122427456Y-101813024D01*
X122617637Y-101739348D01*
X122791041Y-101631981D01*
X122941764Y-101494579D01*
X123064673Y-101331821D01*
X123155582Y-101149250D01*
X123211397Y-100953083D01*
X123230215Y-100750000D01*
X123559785Y-100750000D01*
X123578602Y-100953082D01*
X123634417Y-101149247D01*
X123634422Y-101149260D01*
X123725327Y-101331821D01*
X123848237Y-101494581D01*
X123998958Y-101631980D01*
X123998960Y-101631982D01*
X124045040Y-101660513D01*
X124172363Y-101739348D01*
X124362544Y-101813024D01*
X124563024Y-101850500D01*
X124563026Y-101850500D01*
X124766974Y-101850500D01*
X124766976Y-101850500D01*
X124967456Y-101813024D01*
X125157637Y-101739348D01*
X125331041Y-101631981D01*
X125481764Y-101494579D01*
X125604673Y-101331821D01*
X125695582Y-101149250D01*
X125751397Y-100953083D01*
X125770215Y-100750000D01*
X126099785Y-100750000D01*
X126118602Y-100953082D01*
X126174417Y-101149247D01*
X126174422Y-101149260D01*
X126265327Y-101331821D01*
X126388237Y-101494581D01*
X126538958Y-101631980D01*
X126538960Y-101631982D01*
X126585040Y-101660513D01*
X126712363Y-101739348D01*
X126902544Y-101813024D01*
X127103024Y-101850500D01*
X127103026Y-101850500D01*
X127306974Y-101850500D01*
X127306976Y-101850500D01*
X127507456Y-101813024D01*
X127697637Y-101739348D01*
X127871041Y-101631981D01*
X128021764Y-101494579D01*
X128144673Y-101331821D01*
X128235582Y-101149250D01*
X128291397Y-100953083D01*
X128310215Y-100750000D01*
X128639785Y-100750000D01*
X128658602Y-100953082D01*
X128714417Y-101149247D01*
X128714422Y-101149260D01*
X128805327Y-101331821D01*
X128928237Y-101494581D01*
X129078958Y-101631980D01*
X129078960Y-101631982D01*
X129125040Y-101660513D01*
X129252363Y-101739348D01*
X129442544Y-101813024D01*
X129643024Y-101850500D01*
X129643026Y-101850500D01*
X129846974Y-101850500D01*
X129846976Y-101850500D01*
X130047456Y-101813024D01*
X130237637Y-101739348D01*
X130411041Y-101631981D01*
X130561764Y-101494579D01*
X130684673Y-101331821D01*
X130775582Y-101149250D01*
X130831397Y-100953083D01*
X130850215Y-100750000D01*
X131179785Y-100750000D01*
X131198602Y-100953082D01*
X131254417Y-101149247D01*
X131254422Y-101149260D01*
X131345327Y-101331821D01*
X131468237Y-101494581D01*
X131618958Y-101631980D01*
X131618960Y-101631982D01*
X131665040Y-101660513D01*
X131792363Y-101739348D01*
X131982544Y-101813024D01*
X132183024Y-101850500D01*
X132183026Y-101850500D01*
X132386974Y-101850500D01*
X132386976Y-101850500D01*
X132587456Y-101813024D01*
X132777637Y-101739348D01*
X132951041Y-101631981D01*
X133101764Y-101494579D01*
X133224673Y-101331821D01*
X133315582Y-101149250D01*
X133371397Y-100953083D01*
X133390215Y-100750000D01*
X133719785Y-100750000D01*
X133738602Y-100953082D01*
X133794417Y-101149247D01*
X133794422Y-101149260D01*
X133885327Y-101331821D01*
X134008237Y-101494581D01*
X134158958Y-101631980D01*
X134158960Y-101631982D01*
X134205040Y-101660513D01*
X134332363Y-101739348D01*
X134522544Y-101813024D01*
X134723024Y-101850500D01*
X134723026Y-101850500D01*
X134926974Y-101850500D01*
X134926976Y-101850500D01*
X135127456Y-101813024D01*
X135317637Y-101739348D01*
X135491041Y-101631981D01*
X135641764Y-101494579D01*
X135764673Y-101331821D01*
X135855582Y-101149250D01*
X135911397Y-100953083D01*
X135930215Y-100750000D01*
X136259785Y-100750000D01*
X136278602Y-100953082D01*
X136334417Y-101149247D01*
X136334422Y-101149260D01*
X136425327Y-101331821D01*
X136548237Y-101494581D01*
X136698958Y-101631980D01*
X136698960Y-101631982D01*
X136745040Y-101660513D01*
X136872363Y-101739348D01*
X137062544Y-101813024D01*
X137263024Y-101850500D01*
X137263026Y-101850500D01*
X137466974Y-101850500D01*
X137466976Y-101850500D01*
X137667456Y-101813024D01*
X137857637Y-101739348D01*
X138031041Y-101631981D01*
X138181764Y-101494579D01*
X138304673Y-101331821D01*
X138395582Y-101149250D01*
X138451397Y-100953083D01*
X138470215Y-100750000D01*
X138799785Y-100750000D01*
X138818602Y-100953082D01*
X138874417Y-101149247D01*
X138874422Y-101149260D01*
X138965327Y-101331821D01*
X139088237Y-101494581D01*
X139238958Y-101631980D01*
X139238960Y-101631982D01*
X139285040Y-101660513D01*
X139412363Y-101739348D01*
X139602544Y-101813024D01*
X139803024Y-101850500D01*
X139803026Y-101850500D01*
X140006974Y-101850500D01*
X140006976Y-101850500D01*
X140207456Y-101813024D01*
X140397637Y-101739348D01*
X140571041Y-101631981D01*
X140721764Y-101494579D01*
X140844673Y-101331821D01*
X140935582Y-101149250D01*
X140991397Y-100953083D01*
X141010215Y-100750000D01*
X140991397Y-100546917D01*
X140935582Y-100350750D01*
X140844673Y-100168179D01*
X140721764Y-100005421D01*
X140721762Y-100005418D01*
X140571041Y-99868019D01*
X140571039Y-99868017D01*
X140397642Y-99760655D01*
X140397635Y-99760651D01*
X140302546Y-99723814D01*
X140207456Y-99686976D01*
X140006976Y-99649500D01*
X139803024Y-99649500D01*
X139602544Y-99686976D01*
X139602541Y-99686976D01*
X139602541Y-99686977D01*
X139412364Y-99760651D01*
X139412357Y-99760655D01*
X139238960Y-99868017D01*
X139238958Y-99868019D01*
X139088237Y-100005418D01*
X138965327Y-100168178D01*
X138874422Y-100350739D01*
X138874417Y-100350752D01*
X138818602Y-100546917D01*
X138799785Y-100749999D01*
X138799785Y-100750000D01*
X138470215Y-100750000D01*
X138451397Y-100546917D01*
X138395582Y-100350750D01*
X138304673Y-100168179D01*
X138181764Y-100005421D01*
X138181762Y-100005418D01*
X138031041Y-99868019D01*
X138031039Y-99868017D01*
X137857642Y-99760655D01*
X137857635Y-99760651D01*
X137762546Y-99723814D01*
X137667456Y-99686976D01*
X137466976Y-99649500D01*
X137263024Y-99649500D01*
X137062544Y-99686976D01*
X137062541Y-99686976D01*
X137062541Y-99686977D01*
X136872364Y-99760651D01*
X136872357Y-99760655D01*
X136698960Y-99868017D01*
X136698958Y-99868019D01*
X136548237Y-100005418D01*
X136425327Y-100168178D01*
X136334422Y-100350739D01*
X136334417Y-100350752D01*
X136278602Y-100546917D01*
X136259785Y-100749999D01*
X136259785Y-100750000D01*
X135930215Y-100750000D01*
X135911397Y-100546917D01*
X135855582Y-100350750D01*
X135764673Y-100168179D01*
X135641764Y-100005421D01*
X135641762Y-100005418D01*
X135491041Y-99868019D01*
X135491039Y-99868017D01*
X135317642Y-99760655D01*
X135317635Y-99760651D01*
X135222546Y-99723814D01*
X135127456Y-99686976D01*
X134926976Y-99649500D01*
X134723024Y-99649500D01*
X134522544Y-99686976D01*
X134522541Y-99686976D01*
X134522541Y-99686977D01*
X134332364Y-99760651D01*
X134332357Y-99760655D01*
X134158960Y-99868017D01*
X134158958Y-99868019D01*
X134008237Y-100005418D01*
X133885327Y-100168178D01*
X133794422Y-100350739D01*
X133794417Y-100350752D01*
X133738602Y-100546917D01*
X133719785Y-100749999D01*
X133719785Y-100750000D01*
X133390215Y-100750000D01*
X133371397Y-100546917D01*
X133315582Y-100350750D01*
X133224673Y-100168179D01*
X133101764Y-100005421D01*
X133101762Y-100005418D01*
X132951041Y-99868019D01*
X132951039Y-99868017D01*
X132777642Y-99760655D01*
X132777635Y-99760651D01*
X132682546Y-99723814D01*
X132587456Y-99686976D01*
X132386976Y-99649500D01*
X132183024Y-99649500D01*
X131982544Y-99686976D01*
X131982541Y-99686976D01*
X131982541Y-99686977D01*
X131792364Y-99760651D01*
X131792357Y-99760655D01*
X131618960Y-99868017D01*
X131618958Y-99868019D01*
X131468237Y-100005418D01*
X131345327Y-100168178D01*
X131254422Y-100350739D01*
X131254417Y-100350752D01*
X131198602Y-100546917D01*
X131179785Y-100749999D01*
X131179785Y-100750000D01*
X130850215Y-100750000D01*
X130831397Y-100546917D01*
X130775582Y-100350750D01*
X130684673Y-100168179D01*
X130561764Y-100005421D01*
X130561762Y-100005418D01*
X130411041Y-99868019D01*
X130411039Y-99868017D01*
X130237642Y-99760655D01*
X130237635Y-99760651D01*
X130142546Y-99723814D01*
X130047456Y-99686976D01*
X129846976Y-99649500D01*
X129643024Y-99649500D01*
X129442544Y-99686976D01*
X129442541Y-99686976D01*
X129442541Y-99686977D01*
X129252364Y-99760651D01*
X129252357Y-99760655D01*
X129078960Y-99868017D01*
X129078958Y-99868019D01*
X128928237Y-100005418D01*
X128805327Y-100168178D01*
X128714422Y-100350739D01*
X128714417Y-100350752D01*
X128658602Y-100546917D01*
X128639785Y-100749999D01*
X128639785Y-100750000D01*
X128310215Y-100750000D01*
X128291397Y-100546917D01*
X128235582Y-100350750D01*
X128144673Y-100168179D01*
X128021764Y-100005421D01*
X128021762Y-100005418D01*
X127871041Y-99868019D01*
X127871039Y-99868017D01*
X127697642Y-99760655D01*
X127697635Y-99760651D01*
X127602546Y-99723814D01*
X127507456Y-99686976D01*
X127306976Y-99649500D01*
X127103024Y-99649500D01*
X126902544Y-99686976D01*
X126902541Y-99686976D01*
X126902541Y-99686977D01*
X126712364Y-99760651D01*
X126712357Y-99760655D01*
X126538960Y-99868017D01*
X126538958Y-99868019D01*
X126388237Y-100005418D01*
X126265327Y-100168178D01*
X126174422Y-100350739D01*
X126174417Y-100350752D01*
X126118602Y-100546917D01*
X126099785Y-100749999D01*
X126099785Y-100750000D01*
X125770215Y-100750000D01*
X125751397Y-100546917D01*
X125695582Y-100350750D01*
X125604673Y-100168179D01*
X125481764Y-100005421D01*
X125481762Y-100005418D01*
X125331041Y-99868019D01*
X125331039Y-99868017D01*
X125157642Y-99760655D01*
X125157635Y-99760651D01*
X125062546Y-99723814D01*
X124967456Y-99686976D01*
X124766976Y-99649500D01*
X124563024Y-99649500D01*
X124362544Y-99686976D01*
X124362541Y-99686976D01*
X124362541Y-99686977D01*
X124172364Y-99760651D01*
X124172357Y-99760655D01*
X123998960Y-99868017D01*
X123998958Y-99868019D01*
X123848237Y-100005418D01*
X123725327Y-100168178D01*
X123634422Y-100350739D01*
X123634417Y-100350752D01*
X123578602Y-100546917D01*
X123559785Y-100749999D01*
X123559785Y-100750000D01*
X123230215Y-100750000D01*
X123211397Y-100546917D01*
X123155582Y-100350750D01*
X123064673Y-100168179D01*
X122941764Y-100005421D01*
X122941762Y-100005418D01*
X122791041Y-99868019D01*
X122791039Y-99868017D01*
X122617642Y-99760655D01*
X122617635Y-99760651D01*
X122522546Y-99723814D01*
X122427456Y-99686976D01*
X122226976Y-99649500D01*
X122023024Y-99649500D01*
X121822544Y-99686976D01*
X121822541Y-99686976D01*
X121822541Y-99686977D01*
X121632364Y-99760651D01*
X121632357Y-99760655D01*
X121458960Y-99868017D01*
X121458958Y-99868019D01*
X121308237Y-100005418D01*
X121185327Y-100168178D01*
X121094422Y-100350739D01*
X121094417Y-100350752D01*
X121038602Y-100546917D01*
X121019785Y-100749999D01*
X121019785Y-100750000D01*
X117457812Y-100750000D01*
X121170994Y-97036819D01*
X121232318Y-97003334D01*
X121258676Y-97000500D01*
X142241324Y-97000500D01*
X142308363Y-97020185D01*
X142329005Y-97036819D01*
X147348614Y-102056428D01*
X147365246Y-102077066D01*
X147367854Y-102081125D01*
X147367857Y-102081128D01*
X147407067Y-102115103D01*
X147410283Y-102118097D01*
X147421407Y-102129221D01*
X147421412Y-102129224D01*
X147421417Y-102129229D01*
X147433979Y-102138633D01*
X147437427Y-102141411D01*
X147453780Y-102155580D01*
X147476627Y-102175377D01*
X147481010Y-102177379D01*
X147503807Y-102190905D01*
X147507669Y-102193796D01*
X147556295Y-102211932D01*
X147560351Y-102213612D01*
X147582457Y-102223708D01*
X147607540Y-102235164D01*
X147607541Y-102235164D01*
X147607543Y-102235165D01*
X147612312Y-102235850D01*
X147638002Y-102242407D01*
X147642517Y-102244091D01*
X147694258Y-102247791D01*
X147698657Y-102248264D01*
X147714201Y-102250500D01*
X147729906Y-102250500D01*
X147734328Y-102250657D01*
X147786073Y-102254359D01*
X147790784Y-102253334D01*
X147817143Y-102250500D01*
X153193056Y-102250500D01*
X153260095Y-102270185D01*
X153304055Y-102319226D01*
X153310326Y-102331821D01*
X153433237Y-102494581D01*
X153583958Y-102631980D01*
X153583960Y-102631982D01*
X153655453Y-102676248D01*
X153757363Y-102739348D01*
X153947544Y-102813024D01*
X154148024Y-102850500D01*
X154148026Y-102850500D01*
X154351974Y-102850500D01*
X154351976Y-102850500D01*
X154552456Y-102813024D01*
X154742637Y-102739348D01*
X154916041Y-102631981D01*
X155066764Y-102494579D01*
X155189673Y-102331821D01*
X155280582Y-102149250D01*
X155336397Y-101953083D01*
X155355215Y-101750000D01*
X155336397Y-101546917D01*
X155280582Y-101350750D01*
X155189673Y-101168179D01*
X155070717Y-101010655D01*
X155066762Y-101005418D01*
X154916041Y-100868019D01*
X154916039Y-100868017D01*
X154742642Y-100760655D01*
X154742635Y-100760651D01*
X154647546Y-100723813D01*
X154552456Y-100686976D01*
X154351976Y-100649500D01*
X154148024Y-100649500D01*
X153947544Y-100686976D01*
X153947541Y-100686976D01*
X153947541Y-100686977D01*
X153757364Y-100760651D01*
X153757357Y-100760655D01*
X153583960Y-100868017D01*
X153583958Y-100868019D01*
X153433237Y-101005418D01*
X153310326Y-101168178D01*
X153304055Y-101180774D01*
X153256551Y-101232010D01*
X153193056Y-101249500D01*
X148008676Y-101249500D01*
X147941637Y-101229815D01*
X147920995Y-101213181D01*
X142901385Y-96193571D01*
X142884750Y-96172928D01*
X142882145Y-96168874D01*
X142882142Y-96168871D01*
X142873279Y-96161191D01*
X142842932Y-96134896D01*
X142839700Y-96131886D01*
X142828596Y-96120782D01*
X142828588Y-96120775D01*
X142816013Y-96111362D01*
X142812583Y-96108598D01*
X142773373Y-96074623D01*
X142773371Y-96074622D01*
X142773367Y-96074619D01*
X142768983Y-96072617D01*
X142746194Y-96059096D01*
X142742331Y-96056204D01*
X142742329Y-96056203D01*
X142693716Y-96038071D01*
X142689642Y-96036383D01*
X142642457Y-96014835D01*
X142642455Y-96014834D01*
X142637682Y-96014148D01*
X142612000Y-96007593D01*
X142607485Y-96005909D01*
X142555740Y-96002207D01*
X142551343Y-96001734D01*
X142535799Y-95999500D01*
X142520094Y-95999500D01*
X142515671Y-95999342D01*
X142498083Y-95998084D01*
X142463929Y-95995641D01*
X142463925Y-95995641D01*
X142459215Y-95996666D01*
X142432857Y-95999500D01*
X121067143Y-95999500D01*
X121040785Y-95996666D01*
X121036074Y-95995641D01*
X121036070Y-95995641D01*
X120997552Y-95998396D01*
X120984328Y-95999342D01*
X120979906Y-95999500D01*
X120964199Y-95999500D01*
X120948656Y-96001734D01*
X120944260Y-96002207D01*
X120892517Y-96005909D01*
X120892513Y-96005910D01*
X120887986Y-96007598D01*
X120862327Y-96014146D01*
X120857550Y-96014833D01*
X120857543Y-96014835D01*
X120810353Y-96036385D01*
X120806264Y-96038078D01*
X120757675Y-96056200D01*
X120757664Y-96056206D01*
X120753799Y-96059100D01*
X120731020Y-96072615D01*
X120726636Y-96074617D01*
X120726626Y-96074623D01*
X120702676Y-96095375D01*
X120687433Y-96108584D01*
X120683996Y-96111354D01*
X120671402Y-96120781D01*
X120660291Y-96131892D01*
X120657055Y-96134905D01*
X120617861Y-96168867D01*
X120617854Y-96168876D01*
X120615243Y-96172938D01*
X120598616Y-96193568D01*
X115893118Y-100899066D01*
X115831795Y-100932551D01*
X115782652Y-100933274D01*
X115601976Y-100899500D01*
X115398024Y-100899500D01*
X115197544Y-100936976D01*
X115197541Y-100936976D01*
X115197541Y-100936977D01*
X115007364Y-101010651D01*
X115007357Y-101010655D01*
X114833960Y-101118017D01*
X114833958Y-101118019D01*
X114683237Y-101255418D01*
X114560327Y-101418178D01*
X114469422Y-101600739D01*
X114469417Y-101600752D01*
X114413602Y-101796917D01*
X114394785Y-101999999D01*
X114394785Y-102000000D01*
X112601748Y-102000000D01*
X119639929Y-94961819D01*
X119701252Y-94928334D01*
X119727610Y-94925500D01*
X161272390Y-94925500D01*
X161339429Y-94945185D01*
X161360071Y-94961819D01*
X161753240Y-95354988D01*
X161786725Y-95416311D01*
X161781741Y-95486003D01*
X161739869Y-95541936D01*
X161674405Y-95566353D01*
X161642775Y-95564558D01*
X161521755Y-95541936D01*
X161481976Y-95534500D01*
X161278024Y-95534500D01*
X161077544Y-95571976D01*
X161077541Y-95571976D01*
X161077541Y-95571977D01*
X160887364Y-95645651D01*
X160887357Y-95645655D01*
X160713960Y-95753017D01*
X160713958Y-95753019D01*
X160563237Y-95890418D01*
X160440327Y-96053178D01*
X160349422Y-96235739D01*
X160349417Y-96235752D01*
X160293602Y-96431917D01*
X160274785Y-96634999D01*
X160274785Y-96635000D01*
X160293602Y-96838082D01*
X160349417Y-97034247D01*
X160349422Y-97034260D01*
X160440327Y-97216821D01*
X160563237Y-97379581D01*
X160713958Y-97516980D01*
X160713960Y-97516982D01*
X160813141Y-97578392D01*
X160887363Y-97624348D01*
X161077544Y-97698024D01*
X161278024Y-97735500D01*
X161278026Y-97735500D01*
X161481974Y-97735500D01*
X161481976Y-97735500D01*
X161682456Y-97698024D01*
X161872637Y-97624348D01*
X162046041Y-97516981D01*
X162196764Y-97379579D01*
X162319673Y-97216821D01*
X162410582Y-97034250D01*
X162466397Y-96838083D01*
X162485215Y-96635000D01*
X162466397Y-96431917D01*
X162410582Y-96235750D01*
X162410577Y-96235739D01*
X162410575Y-96235734D01*
X162325446Y-96064771D01*
X162313185Y-95995986D01*
X162340058Y-95931491D01*
X162397534Y-95891764D01*
X162436446Y-95885500D01*
X162517390Y-95885500D01*
X162584429Y-95905185D01*
X162605071Y-95921819D01*
X162844443Y-96161191D01*
X162877928Y-96222514D01*
X162876029Y-96282806D01*
X162833602Y-96431921D01*
X162814785Y-96634999D01*
X162814785Y-96635000D01*
X162833602Y-96838082D01*
X162889417Y-97034247D01*
X162889422Y-97034260D01*
X162980327Y-97216821D01*
X163103237Y-97379581D01*
X163253958Y-97516980D01*
X163253960Y-97516982D01*
X163353141Y-97578392D01*
X163427363Y-97624348D01*
X163617544Y-97698024D01*
X163818024Y-97735500D01*
X163818026Y-97735500D01*
X164021974Y-97735500D01*
X164021976Y-97735500D01*
X164222456Y-97698024D01*
X164412637Y-97624348D01*
X164586041Y-97516981D01*
X164736764Y-97379579D01*
X164859673Y-97216821D01*
X164950582Y-97034250D01*
X165006397Y-96838083D01*
X165025215Y-96635000D01*
X165354785Y-96635000D01*
X165373602Y-96838082D01*
X165429417Y-97034247D01*
X165429422Y-97034260D01*
X165520327Y-97216821D01*
X165643237Y-97379581D01*
X165793958Y-97516980D01*
X165793960Y-97516982D01*
X165893141Y-97578392D01*
X165967363Y-97624348D01*
X166157544Y-97698024D01*
X166358024Y-97735500D01*
X166358026Y-97735500D01*
X166561974Y-97735500D01*
X166561976Y-97735500D01*
X166762456Y-97698024D01*
X166952637Y-97624348D01*
X167126041Y-97516981D01*
X167276764Y-97379579D01*
X167399673Y-97216821D01*
X167490582Y-97034250D01*
X167546397Y-96838083D01*
X167565215Y-96635000D01*
X167546397Y-96431917D01*
X167490582Y-96235750D01*
X167490574Y-96235734D01*
X167433335Y-96120782D01*
X167399673Y-96053179D01*
X167276764Y-95890421D01*
X167276762Y-95890418D01*
X167126041Y-95753019D01*
X167126039Y-95753017D01*
X166952642Y-95645655D01*
X166952635Y-95645651D01*
X166816715Y-95592996D01*
X166762456Y-95571976D01*
X166561976Y-95534500D01*
X166358024Y-95534500D01*
X166157544Y-95571976D01*
X166157541Y-95571976D01*
X166157541Y-95571977D01*
X165967364Y-95645651D01*
X165967357Y-95645655D01*
X165793960Y-95753017D01*
X165793958Y-95753019D01*
X165643237Y-95890418D01*
X165520327Y-96053178D01*
X165429422Y-96235739D01*
X165429417Y-96235752D01*
X165373602Y-96431917D01*
X165354785Y-96634999D01*
X165354785Y-96635000D01*
X165025215Y-96635000D01*
X165006397Y-96431917D01*
X164950582Y-96235750D01*
X164950574Y-96235734D01*
X164893335Y-96120782D01*
X164859673Y-96053179D01*
X164736764Y-95890421D01*
X164736762Y-95890418D01*
X164586041Y-95753019D01*
X164586039Y-95753017D01*
X164412642Y-95645655D01*
X164412635Y-95645651D01*
X164276715Y-95592996D01*
X164222456Y-95571976D01*
X164021976Y-95534500D01*
X163818024Y-95534500D01*
X163717783Y-95553238D01*
X163617542Y-95571976D01*
X163617540Y-95571977D01*
X163578409Y-95587136D01*
X163508786Y-95592996D01*
X163447046Y-95560285D01*
X163445937Y-95559189D01*
X162998218Y-95111470D01*
X162976703Y-95100508D01*
X162960110Y-95090340D01*
X162940580Y-95076150D01*
X162917615Y-95068688D01*
X162899641Y-95061243D01*
X162878127Y-95050281D01*
X162873010Y-95049470D01*
X162854273Y-95046503D01*
X162835358Y-95041962D01*
X162812394Y-95034500D01*
X162812393Y-95034500D01*
X162778488Y-95034500D01*
X162687610Y-95034500D01*
X162620571Y-95014815D01*
X162599929Y-94998181D01*
X161794635Y-94192887D01*
X161794631Y-94192881D01*
X161753221Y-94151473D01*
X161753220Y-94151472D01*
X161731696Y-94140505D01*
X161715112Y-94130341D01*
X161695581Y-94116151D01*
X161695580Y-94116150D01*
X161672615Y-94108688D01*
X161654641Y-94101243D01*
X161633127Y-94090281D01*
X161628010Y-94089470D01*
X161609273Y-94086503D01*
X161590358Y-94081962D01*
X161567394Y-94074500D01*
X161567393Y-94074500D01*
X161533488Y-94074500D01*
X119567393Y-94074500D01*
X119432607Y-94074500D01*
X119432604Y-94074500D01*
X119409639Y-94081962D01*
X119390722Y-94086503D01*
X119366873Y-94090280D01*
X119345358Y-94101243D01*
X119327386Y-94108688D01*
X119304418Y-94116151D01*
X119304413Y-94116153D01*
X119284881Y-94130344D01*
X119268301Y-94140505D01*
X119246780Y-94151471D01*
X119246778Y-94151473D01*
X119205367Y-94192882D01*
X119205363Y-94192888D01*
X111188196Y-102210053D01*
X111188192Y-102210059D01*
X111151472Y-102246778D01*
X111140510Y-102268293D01*
X111130346Y-102284878D01*
X111116152Y-102304414D01*
X111116151Y-102304417D01*
X111108688Y-102327385D01*
X111101243Y-102345358D01*
X111090280Y-102366873D01*
X111086503Y-102390722D01*
X111081962Y-102409639D01*
X111074500Y-102432604D01*
X111074500Y-110456754D01*
X111072973Y-110476153D01*
X111069196Y-110499999D01*
X111069196Y-110500000D01*
X110000500Y-110500000D01*
X110000500Y-91000004D01*
X153244592Y-91000004D01*
X153264196Y-91261620D01*
X153264197Y-91261625D01*
X153322576Y-91517402D01*
X153322578Y-91517411D01*
X153322580Y-91517416D01*
X153418432Y-91761643D01*
X153549614Y-91988857D01*
X153681736Y-92154533D01*
X153713198Y-92193985D01*
X153894753Y-92362441D01*
X153905521Y-92372433D01*
X154122296Y-92520228D01*
X154122301Y-92520230D01*
X154122302Y-92520231D01*
X154122303Y-92520232D01*
X154247843Y-92580688D01*
X154358673Y-92634061D01*
X154358674Y-92634061D01*
X154358677Y-92634063D01*
X154609385Y-92711396D01*
X154868818Y-92750500D01*
X155131182Y-92750500D01*
X155390615Y-92711396D01*
X155641323Y-92634063D01*
X155877704Y-92520228D01*
X156094479Y-92372433D01*
X156286805Y-92193981D01*
X156450386Y-91988857D01*
X156581568Y-91761643D01*
X156677420Y-91517416D01*
X156735802Y-91261630D01*
X156755408Y-91000000D01*
X156735802Y-90738370D01*
X156677420Y-90482584D01*
X156581568Y-90238357D01*
X156450386Y-90011143D01*
X156286805Y-89806019D01*
X156286804Y-89806018D01*
X156286801Y-89806014D01*
X156094479Y-89627567D01*
X156094479Y-89627566D01*
X155877704Y-89479772D01*
X155877700Y-89479770D01*
X155877697Y-89479768D01*
X155877696Y-89479767D01*
X155641325Y-89365938D01*
X155641327Y-89365938D01*
X155390623Y-89288606D01*
X155390619Y-89288605D01*
X155390615Y-89288604D01*
X155265823Y-89269794D01*
X155131187Y-89249500D01*
X155131182Y-89249500D01*
X154868818Y-89249500D01*
X154868812Y-89249500D01*
X154707247Y-89273853D01*
X154609385Y-89288604D01*
X154609381Y-89288605D01*
X154609382Y-89288605D01*
X154609376Y-89288606D01*
X154358673Y-89365938D01*
X154122303Y-89479767D01*
X154122302Y-89479768D01*
X153905520Y-89627567D01*
X153713198Y-89806014D01*
X153549614Y-90011143D01*
X153418432Y-90238356D01*
X153322582Y-90482578D01*
X153322576Y-90482597D01*
X153264197Y-90738374D01*
X153264196Y-90738379D01*
X153244592Y-90999995D01*
X153244592Y-91000004D01*
X110000500Y-91000004D01*
X110000500Y-87002036D01*
X110000633Y-86997980D01*
X110005989Y-86916265D01*
X110007541Y-86894561D01*
X110018986Y-86734538D01*
X110020015Y-86726901D01*
X110043155Y-86610567D01*
X110074533Y-86466323D01*
X110076392Y-86459625D01*
X110116547Y-86341335D01*
X110117087Y-86339817D01*
X110166162Y-86208242D01*
X110168628Y-86202530D01*
X110225044Y-86088129D01*
X110226152Y-86085996D01*
X110292184Y-85965066D01*
X110295029Y-85960368D01*
X110366563Y-85853311D01*
X110368428Y-85850676D01*
X110450291Y-85741321D01*
X110453244Y-85737678D01*
X110538503Y-85640459D01*
X110541198Y-85637581D01*
X110637581Y-85541198D01*
X110640459Y-85538503D01*
X110737678Y-85453244D01*
X110741321Y-85450291D01*
X110850676Y-85368428D01*
X110853311Y-85366563D01*
X110960368Y-85295029D01*
X110965066Y-85292184D01*
X111085996Y-85226152D01*
X111088129Y-85225044D01*
X111202530Y-85168628D01*
X111208242Y-85166162D01*
X111339817Y-85117087D01*
X111341335Y-85116547D01*
X111459625Y-85076392D01*
X111466323Y-85074533D01*
X111610567Y-85043155D01*
X111726901Y-85020015D01*
X111734536Y-85018986D01*
X111916290Y-85005986D01*
X111946237Y-85004023D01*
X111997981Y-85000633D01*
X112002036Y-85000500D01*
X197997964Y-85000500D01*
X198002019Y-85000633D01*
G37*
%TD.AperFunction*%
%TD*%
M02*
