M48
; DRILL file {KiCad 7.0.5-0} date 2023 May 29, Monday 19:58:57
; FORMAT={-:-/ absolute / inch / decimal}
; #@! TF.CreationDate,2023-05-29T19:58:57-04:00
; #@! TF.GenerationSoftware,Kicad,Pcbnew,7.0.5-0
; #@! TF.FileFunction,Plated,1,2,PTH
FMAT,2
INCH
; #@! TA.AperFunction,Plated,PTH,ViaDrill
T1C0.0157
; #@! TA.AperFunction,Plated,PTH,ComponentDrill
T2C0.0315
%
G90
G05
T1
X4.5079Y-4.4291
X6.0433Y-4.4882
T2
X4.5472Y-4.0157
X4.5472Y-4.2126
X4.8081Y-3.9665
X4.8081Y-4.2665
X4.9081Y-3.9665
X4.9081Y-4.2665
X5.0081Y-3.9665
X5.0081Y-4.2665
X5.1081Y-3.9665
X5.1081Y-4.2665
X5.2081Y-3.9665
X5.2081Y-4.2665
X5.3081Y-3.9665
X5.3081Y-4.2665
X5.4081Y-3.9665
X5.4081Y-4.2665
X5.5081Y-3.9665
X5.5081Y-4.2665
X6.0728Y-4.0059
X6.0728Y-4.2028
X6.3535Y-3.8045
X6.3535Y-4.4045
X6.4535Y-3.8045
X6.4535Y-4.4045
X6.5535Y-3.8045
X6.5535Y-4.4045
X6.6535Y-3.8045
X6.6535Y-4.4045
X6.7535Y-3.8045
X6.7535Y-4.4045
X6.8535Y-3.8045
X6.8535Y-4.4045
X6.9535Y-3.8045
X6.9535Y-4.4045
X7.0535Y-3.8045
X7.0535Y-4.4045
X7.1535Y-3.8045
X7.1535Y-4.4045
X7.2535Y-3.8045
X7.2535Y-4.4045
X7.3535Y-3.8045
X7.3535Y-4.4045
X7.4535Y-3.8045
X7.4535Y-4.4045
X7.5535Y-3.8045
X7.5535Y-4.4045
X7.6535Y-3.8045
X7.6535Y-4.4045
T0
M30
