%TF.GenerationSoftware,KiCad,Pcbnew,7.0.5-0*%
%TF.CreationDate,2023-05-29T19:57:58-04:00*%
%TF.ProjectId,vic20-ram-expander,76696332-302d-4726-916d-2d657870616e,rev?*%
%TF.SameCoordinates,Original*%
%TF.FileFunction,Soldermask,Bot*%
%TF.FilePolarity,Negative*%
%FSLAX46Y46*%
G04 Gerber Fmt 4.6, Leading zero omitted, Abs format (unit mm)*
G04 Created by KiCad (PCBNEW 7.0.5-0) date 2023-05-29 19:57:58*
%MOMM*%
%LPD*%
G01*
G04 APERTURE LIST*
G04 Aperture macros list*
%AMRoundRect*
0 Rectangle with rounded corners*
0 $1 Rounding radius*
0 $2 $3 $4 $5 $6 $7 $8 $9 X,Y pos of 4 corners*
0 Add a 4 corners polygon primitive as box body*
4,1,4,$2,$3,$4,$5,$6,$7,$8,$9,$2,$3,0*
0 Add four circle primitives for the rounded corners*
1,1,$1+$1,$2,$3*
1,1,$1+$1,$4,$5*
1,1,$1+$1,$6,$7*
1,1,$1+$1,$8,$9*
0 Add four rect primitives between the rounded corners*
20,1,$1+$1,$2,$3,$4,$5,0*
20,1,$1+$1,$4,$5,$6,$7,0*
20,1,$1+$1,$6,$7,$8,$9,0*
20,1,$1+$1,$8,$9,$2,$3,0*%
G04 Aperture macros list end*
%ADD10C,0.100000*%
%ADD11R,1.600000X1.600000*%
%ADD12O,1.600000X1.600000*%
%ADD13C,1.600000*%
%ADD14RoundRect,0.625000X-0.625000X-4.875000X0.625000X-4.875000X0.625000X4.875000X-0.625000X4.875000X0*%
G04 APERTURE END LIST*
%TO.C,U1*%
D10*
X200440000Y-129940000D02*
X109440000Y-129940000D01*
X109440000Y-119940000D01*
X200440000Y-119940000D01*
X200440000Y-129940000D01*
G36*
X200440000Y-129940000D02*
G01*
X109440000Y-129940000D01*
X109440000Y-119940000D01*
X200440000Y-119940000D01*
X200440000Y-129940000D01*
G37*
%TD*%
D11*
%TO.C,U2*%
X161380000Y-111875000D03*
D12*
X163920000Y-111875000D03*
X166460000Y-111875000D03*
X169000000Y-111875000D03*
X171540000Y-111875000D03*
X174080000Y-111875000D03*
X176620000Y-111875000D03*
X179160000Y-111875000D03*
X181700000Y-111875000D03*
X184240000Y-111875000D03*
X186780000Y-111875000D03*
X189320000Y-111875000D03*
X191860000Y-111875000D03*
X194400000Y-111875000D03*
X194400000Y-96635000D03*
X191860000Y-96635000D03*
X189320000Y-96635000D03*
X186780000Y-96635000D03*
X184240000Y-96635000D03*
X181700000Y-96635000D03*
X179160000Y-96635000D03*
X176620000Y-96635000D03*
X174080000Y-96635000D03*
X171540000Y-96635000D03*
X169000000Y-96635000D03*
X166460000Y-96635000D03*
X163920000Y-96635000D03*
X161380000Y-96635000D03*
%TD*%
D13*
%TO.C,C1*%
X154250000Y-101750000D03*
X154250000Y-106750000D03*
%TD*%
%TO.C,C2*%
X115500000Y-102000000D03*
X115500000Y-107000000D03*
%TD*%
D11*
%TO.C,U3*%
X122125000Y-108370000D03*
D12*
X124665000Y-108370000D03*
X127205000Y-108370000D03*
X129745000Y-108370000D03*
X132285000Y-108370000D03*
X134825000Y-108370000D03*
X137365000Y-108370000D03*
X139905000Y-108370000D03*
X139905000Y-100750000D03*
X137365000Y-100750000D03*
X134825000Y-100750000D03*
X132285000Y-100750000D03*
X129745000Y-100750000D03*
X127205000Y-100750000D03*
X124665000Y-100750000D03*
X122125000Y-100750000D03*
%TD*%
D14*
%TO.C,U1*%
X196560000Y-125000000D03*
X192600000Y-125000000D03*
X188640000Y-125000000D03*
X184680000Y-125000000D03*
X180720000Y-125000000D03*
X176760000Y-125000000D03*
X172800000Y-125000000D03*
X168840000Y-125000000D03*
X164880000Y-125000000D03*
X160920000Y-125000000D03*
X156960000Y-125000000D03*
X153000000Y-125000000D03*
X149040000Y-125000000D03*
X145080000Y-125000000D03*
X141120000Y-125000000D03*
X137160000Y-125000000D03*
X133200000Y-125000000D03*
X129240000Y-125000000D03*
X125280000Y-125000000D03*
X121320000Y-125000000D03*
X117360000Y-125000000D03*
X113400000Y-125000000D03*
%TD*%
M02*
